<svg width="15" height="13" viewBox="0 0 15 13" fill="none" xmlns="http://www.w3.org/2000/svg">
<path d="M13.6879 7.71851L8.68787 12.7185C8.50037 12.906 8.25037 12.9998 8.00037 12.9998C7.71912 12.9998 7.46912 12.906 7.28162 12.7185C6.87537 12.3435 6.87537 11.6873 7.28162 11.3123L10.5629 7.99976H1.00037C0.437866 7.99976 0.000366211 7.56226 0.000366211 6.99976C0.000366211 6.46851 0.437866 5.99976 1.00037 5.99976H10.5629L7.28162 2.71851C6.87537 2.34351 6.87537 1.68726 7.28162 1.31226C7.65662 0.906006 8.31287 0.906006 8.68787 1.31226L13.6879 6.31226C14.0941 6.68726 14.0941 7.34351 13.6879 7.71851Z" fill="white"/>
</svg>
