<svg width="65" height="65" viewBox="0 0 65 65" fill="none" xmlns="http://www.w3.org/2000/svg">
<g id="009-seo">
<g clip-path="url(#clip0_0_256)">
<g id="Group">
<path id="Vector" d="M6.10352e-05 53.4473V55.3516C6.10352e-05 58.5017 2.56286 61.0645 5.71295 61.0645H59.2872C62.4373 61.0645 65.0001 58.5017 65.0001 55.3516V53.4473H6.10352e-05Z" fill="#2928E8"/>
<path id="Vector_2" d="M62.035 43.291H2.96503L0.584656 49.6387H64.4154L62.035 43.291Z" fill="#2928E8"/>
<path id="Vector_3" d="M61.1915 9.64844C61.1915 6.49835 58.6287 3.93555 55.4786 3.93555H9.52155C6.37146 3.93555 3.80865 6.49835 3.80865 9.64844V39.4824H61.1915V9.64844ZM23.4586 25.5903C23.0393 27.939 20.7961 29.6436 18.125 29.6436C15.986 29.6436 13.8963 28.7468 12.535 27.2446C11.9465 26.5953 11.9959 25.5916 12.6454 25.0032C13.2948 24.4146 14.2984 24.4641 14.8868 25.1135C15.6564 25.9627 16.8669 26.4699 18.1249 26.4699C19.3471 26.4699 20.2078 25.7391 20.334 25.0326C20.5017 24.0937 19.2302 23.5167 18.6756 23.3121C16.711 22.5875 14.9666 21.8109 14.8933 21.7783C14.8169 21.7442 14.7433 21.7042 14.6732 21.6585C13.3364 20.7871 12.6476 19.2585 12.8756 17.6697C13.1188 15.9764 14.3568 14.5969 16.1069 14.0698C19.3442 13.0946 22.3038 14.7968 22.9174 15.9444C23.3305 16.7173 23.0388 17.6789 22.2659 18.0921C21.5672 18.4655 20.7147 18.2631 20.2521 17.6502C19.9326 17.3795 18.6283 16.6251 17.0224 17.1088C16.2115 17.3531 16.0495 17.8979 16.0175 18.1208C15.9945 18.281 15.983 18.6654 16.3259 18.9414C16.7708 19.1363 18.2188 19.761 19.774 20.3347C22.972 21.5139 23.7742 23.8229 23.4586 25.5903ZM32.876 20.1221C33.7523 20.1221 34.4629 20.8325 34.4629 21.709C34.4629 22.5855 33.7523 23.2959 32.876 23.2959H29.508V26.4697H33.2704C34.1468 26.4697 34.8573 27.1803 34.8573 28.0566C34.8573 28.933 34.1468 29.6436 33.2704 29.6436H27.9211C27.0448 29.6436 26.3342 28.933 26.3342 28.0566V15.3613C26.3342 14.485 27.0448 13.7744 27.9211 13.7744H33.2704C34.1468 13.7744 34.8573 14.485 34.8573 15.3613C34.8573 16.2377 34.1468 16.9482 33.2704 16.9482H29.508V20.1221H32.876ZM44.9415 29.6436C40.5663 29.6436 37.0069 26.084 37.0069 21.709C37.0069 17.3339 40.5663 13.7744 44.9415 13.7744C49.3167 13.7744 52.876 17.3339 52.876 21.709C52.876 26.084 49.3167 29.6436 44.9415 29.6436Z" fill="#2928E8"/>
<path id="Vector_4" d="M44.9415 26.4697C47.5708 26.4697 49.7022 24.3383 49.7022 21.709C49.7022 19.0797 47.5708 16.9482 44.9415 16.9482C42.3122 16.9482 40.1807 19.0797 40.1807 21.709C40.1807 24.3383 42.3122 26.4697 44.9415 26.4697Z" fill="#2928E8"/>
</g>
</g>
</g>
<defs>
<clipPath id="clip0_0_256">
<rect x="6.10352e-05" width="65" height="65" rx="20" fill="white"/>
</clipPath>
</defs>
</svg>
