<svg width="65" height="65" viewBox="0 0 65 65" fill="none" xmlns="http://www.w3.org/2000/svg">
<g id="033-calendar">
<g clip-path="url(#clip0_0_266)">
<g id="Group">
<path id="Vector" d="M59.2872 7.61719H55.9864V13.3301C55.9864 16.4802 53.4236 19.043 50.2735 19.043C49.2218 19.043 48.3692 18.1904 48.3692 17.1387C48.3692 16.087 49.2218 15.2344 50.2735 15.2344C51.3235 15.2344 52.1778 14.3801 52.1778 13.3301V7.61719H48.3692V5.71289C48.3692 4.66286 49.2235 3.80859 50.2735 3.80859C51.3235 3.80859 52.1778 4.66286 52.1778 5.71289V7.61719H55.9864V5.71289C55.9864 2.5628 53.4236 0 50.2735 0C47.1234 0 44.5606 2.5628 44.5606 5.71289V7.61719H38.213V13.3301C38.213 16.4802 35.6502 19.043 32.5001 19.043C31.4484 19.043 30.5958 18.1904 30.5958 17.1387C30.5958 16.087 31.4484 15.2344 32.5001 15.2344C33.5501 15.2344 34.4044 14.3801 34.4044 13.3301V7.61719H30.5958V5.71289C30.5958 4.66286 31.45 3.80859 32.5001 3.80859C33.5501 3.80859 34.4044 4.66286 34.4044 5.71289V7.61719H38.213V5.71289C38.213 2.5628 35.6502 0 32.5001 0C29.35 0 26.7872 2.5628 26.7872 5.71289V7.61719H20.4395V13.3301C20.4395 16.4802 17.8767 19.043 14.7266 19.043C13.6749 19.043 12.8223 18.1904 12.8223 17.1387C12.8223 16.087 13.6749 15.2344 14.7266 15.2344C15.7767 15.2344 16.6309 14.3801 16.6309 13.3301V7.61719H12.8223V5.71289C12.8223 4.66286 13.6766 3.80859 14.7266 3.80859C15.7767 3.80859 16.6309 4.66286 16.6309 5.71289V7.61719H20.4395V5.71289C20.4395 2.5628 17.8767 0 14.7266 0C11.5765 0 9.01373 2.5628 9.01373 5.71289V7.61719H5.71295C2.56286 7.61719 6.10352e-05 10.18 6.10352e-05 13.3301V21.8359H65.0001V13.3301C65.0001 10.18 62.4373 7.61719 59.2872 7.61719Z" fill="#2928E8"/>
<path id="Vector_2" d="M22.3438 56.1133C28.294 56.1133 33.1348 51.2724 33.1348 45.3223C33.1348 39.3721 28.294 34.5312 22.3438 34.5312C16.3936 34.5312 11.5528 39.3721 11.5528 45.3223C11.5528 51.2724 16.3936 56.1133 22.3438 56.1133ZM20.4395 38.9746C20.4395 37.9229 21.2921 37.0703 22.3438 37.0703C23.3955 37.0703 24.2481 37.9229 24.2481 38.9746V43.418H27.4219C28.4736 43.418 29.3262 44.2706 29.3262 45.3223C29.3262 46.3739 28.4736 47.2266 27.4219 47.2266H22.3438C21.2921 47.2266 20.4395 46.3739 20.4395 45.3223V38.9746Z" fill="#2928E8"/>
<path id="Vector_3" d="M6.10352e-05 59.2871C6.10352e-05 62.4372 2.56286 65 5.71295 65H59.2872C62.4373 65 65.0001 62.4372 65.0001 59.2871V25.6445H6.10352e-05V59.2871ZM42.6563 35.8008H55.3516C56.4033 35.8008 57.2559 36.6534 57.2559 37.7051C57.2559 38.7568 56.4033 39.6094 55.3516 39.6094H42.6563C41.6046 39.6094 40.752 38.7568 40.752 37.7051C40.752 36.6534 41.6046 35.8008 42.6563 35.8008ZM42.6563 43.418H55.3516C56.4033 43.418 57.2559 44.2706 57.2559 45.3223C57.2559 46.3739 56.4033 47.2266 55.3516 47.2266H42.6563C41.6046 47.2266 40.752 46.3739 40.752 45.3223C40.752 44.2706 41.6046 43.418 42.6563 43.418ZM42.6563 51.0352H55.3516C56.4033 51.0352 57.2559 51.8878 57.2559 52.9395C57.2559 53.9911 56.4033 54.8438 55.3516 54.8438H42.6563C41.6046 54.8438 40.752 53.9911 40.752 52.9395C40.752 51.8878 41.6046 51.0352 42.6563 51.0352ZM22.3438 30.7227C30.394 30.7227 36.9434 37.272 36.9434 45.3223C36.9434 53.3725 30.394 59.9219 22.3438 59.9219C14.2936 59.9219 7.7442 53.3725 7.7442 45.3223C7.7442 37.272 14.2936 30.7227 22.3438 30.7227Z" fill="#2928E8"/>
</g>
</g>
</g>
<defs>
<clipPath id="clip0_0_266">
<rect x="6.10352e-05" width="65" height="65" rx="20" fill="white"/>
</clipPath>
</defs>
</svg>
