<svg width="65" height="65" viewBox="0 0 65 65" fill="none" xmlns="http://www.w3.org/2000/svg">
<g id="025-architect">
<g clip-path="url(#clip0_0_275)">
<g id="Group">
<path id="Vector" d="M59.9219 17.9004H56.7481C55.6964 17.9004 54.8438 18.753 54.8438 19.8047V49.0039C54.8438 50.0556 55.6964 50.9082 56.7481 50.9082H59.9219C61.8091 50.9082 63.5594 51.5013 65.0001 52.5083V22.9785C65.0001 20.174 62.7265 17.9004 59.9219 17.9004Z" fill="#2928E8"/>
<path id="Vector_2" d="M22.8516 48.3691H26.6602V53.4473H22.8516V48.3691Z" fill="#2928E8"/>
<path id="Vector_3" d="M16.504 43.0229V53.4469H19.043V46.4645C19.043 45.4128 19.8956 44.5602 20.9473 44.5602H28.5645C29.6162 44.5602 30.4688 45.4128 30.4688 46.4645V53.4469H33.0079V43.0229L24.7559 37.3496L16.504 43.0229Z" fill="#2928E8"/>
<path id="Vector_4" d="M59.9219 54.7168H56.7481C53.5929 54.7168 51.0352 52.1591 51.0352 49.0039V25.5176H23.2289C20.3689 27.8946 16.6963 29.3262 12.6954 29.3262C8.69445 29.3262 5.02182 27.8946 2.16182 25.5176H1.90436C0.852678 25.5176 6.10352e-05 26.3702 6.10352e-05 27.4219V62.9688C6.10352e-05 64.0204 0.852678 64.873 1.90436 64.873H59.8216C62.6691 64.873 65.0535 62.5428 64.9992 59.6959C64.9464 56.9371 62.6935 54.7168 59.9219 54.7168ZM40.2899 45.7187C39.6941 46.5853 38.5085 46.8049 37.6419 46.209L36.8165 45.6416V55.3516C36.8165 56.4032 35.9639 57.2559 34.9122 57.2559H14.5997C13.548 57.2559 12.6954 56.4032 12.6954 55.3516V45.6417L11.8699 46.2092C11.0033 46.805 9.81773 46.5854 9.22194 45.7189C8.62615 44.8522 8.84565 43.6667 9.71223 43.0708L23.6771 33.4699C24.3269 33.023 25.1849 33.023 25.8348 33.4699L39.7996 43.0708C40.6662 43.6665 40.8858 44.8522 40.2899 45.7187Z" fill="#2928E8"/>
<path id="Vector_5" d="M11.6681 7.99438C11.1656 8.25324 10.9012 8.76144 10.8202 9.19079C10.7239 9.7014 10.8535 10.1819 11.1505 10.4147C11.3012 10.5329 11.4764 10.6473 11.6681 10.7584V7.99438Z" fill="#2928E8"/>
<path id="Vector_6" d="M14.9192 15.7963C14.9816 15.4244 15.0716 14.1708 13.6041 13.6521C13.5931 13.6482 13.5831 13.6446 13.5723 13.6406V17.5559C14.3455 17.2137 14.8033 16.4854 14.9192 15.7963Z" fill="#2928E8"/>
<path id="Vector_7" d="M12.6954 25.5176C19.7069 25.5176 25.3907 19.8338 25.3907 12.8223C25.3907 5.81077 19.7069 0.126953 12.6954 0.126953C5.68388 0.126953 6.10352e-05 5.81077 6.10352e-05 12.8223C6.10352e-05 19.8338 5.68388 25.5176 12.6954 25.5176ZM8.69165 17.3441C8.97945 16.9039 9.56953 16.7805 10.0097 17.0685C10.6743 17.5032 11.0777 17.6683 11.6681 17.7268V12.8916C10.9435 12.5648 10.4089 12.2531 9.97528 11.9132C9.11225 11.2364 8.71895 10.0581 8.94886 8.83822C9.2001 7.50433 10.1272 6.44363 11.3683 6.06963C11.4699 6.03903 11.5694 6.01275 11.6681 5.98851V5.20508C11.6681 4.67911 12.0942 4.25293 12.6202 4.25293C13.1462 4.25293 13.5724 4.67911 13.5724 5.20508V5.87818C14.6517 6.03548 15.4105 6.557 15.7707 6.97074C16.1161 7.36722 16.0747 7.96859 15.6781 8.31403C15.2832 8.6582 14.6845 8.61834 14.3383 8.22542C14.3205 8.20727 14.068 7.95742 13.5724 7.82222V11.6144C13.7959 11.6982 14.0196 11.7791 14.2387 11.8565C16.116 12.5201 17.1202 14.1904 16.7972 16.112C16.5443 17.6158 15.3823 19.1405 13.5724 19.5519V20.4395C13.5724 20.9654 13.1462 21.3916 12.6202 21.3916C12.0942 21.3916 11.6681 20.9654 11.6681 20.4395V19.6376C10.7539 19.5741 10.022 19.352 8.96727 18.6621C8.52712 18.3742 8.40372 17.7842 8.69165 17.3441Z" fill="#2928E8"/>
</g>
</g>
</g>
<defs>
<clipPath id="clip0_0_275">
<rect x="6.10352e-05" width="65" height="65" rx="20" fill="white"/>
</clipPath>
</defs>
</svg>
