<svg width="38" height="28" viewBox="0 0 38 28" fill="none" xmlns="http://www.w3.org/2000/svg">
<path d="M7.95563 0.829375C12.3478 0.829375 15.9113 4.39283 15.9113 8.785V16.7406C15.9113 22.6245 11.1047 27.3481 5.30375 27.3481C3.81207 27.3481 2.65188 26.1879 2.65188 24.6962C2.65188 23.2874 3.81207 22.0444 5.30375 22.0444C8.20424 22.0444 10.6075 19.724 10.6075 16.7406V16.3263C9.69592 16.5749 8.86721 16.7406 7.95563 16.7406C3.48059 16.7406 0 13.26 0 8.785C0 4.39283 3.48059 0.829375 7.95563 0.829375ZM37.1263 8.785V16.7406C37.1263 22.6245 32.3197 27.3481 26.5188 27.3481C25.0271 27.3481 23.8669 26.1879 23.8669 24.6962C23.8669 23.2874 25.0271 22.0444 26.5188 22.0444C29.4192 22.0444 31.8225 19.724 31.8225 16.7406V16.3263C30.9109 16.5749 30.0822 16.7406 29.1706 16.7406C24.6956 16.7406 21.215 13.26 21.215 8.785C21.215 4.39283 24.6956 0.829375 29.1706 0.829375C33.5628 0.829375 37.1263 4.39283 37.1263 8.785Z" fill="white"/>
</svg>
