<svg width="500" height="500" viewBox="0 0 500 500" fill="none" xmlns="http://www.w3.org/2000/svg">
<path d="M426.14 92.2001H116.58C105.258 92.2001 96.08 101.378 96.08 112.7V252.49C96.08 263.812 105.258 272.99 116.58 272.99H426.14C437.462 272.99 446.64 263.812 446.64 252.49V112.7C446.64 101.378 437.462 92.2001 426.14 92.2001Z" fill="white" stroke="#263238" stroke-miterlimit="10"/>
<path d="M434.17 87.3401H423.4V84.0001H392.8V87.3401H385.85V84.0001H355.25V87.3401H348.25V84.0001H317.65V87.3401H108.54C103.256 87.3428 98.1893 89.4437 94.4538 93.181C90.7184 96.9183 88.62 101.986 88.62 107.27V257.93C88.6187 260.547 89.133 263.138 90.1334 265.556C91.1339 267.974 92.601 270.171 94.4509 272.022C96.3008 273.873 98.4972 275.341 100.915 276.343C103.332 277.345 105.923 277.86 108.54 277.86H368.32V280.25H398.92V277.86H434.17C436.787 277.86 439.378 277.345 441.795 276.343C444.213 275.341 446.409 273.873 448.259 272.022C450.109 270.171 451.576 267.974 452.577 265.556C453.577 263.138 454.091 260.547 454.09 257.93V107.27C454.09 101.986 451.992 96.9183 448.256 93.181C444.521 89.4437 439.454 87.3428 434.17 87.3401ZM446.64 130.22L437.88 136.1C436.588 136.971 435.529 138.146 434.796 139.522C434.064 140.897 433.681 142.432 433.68 143.99V221.21C433.681 222.769 434.064 224.303 434.796 225.679C435.529 227.054 436.588 228.229 437.88 229.1L446.64 234.98V253.07C446.64 258.356 444.54 263.425 440.803 267.163C437.065 270.9 431.996 273 426.71 273H116C113.383 273 110.792 272.485 108.375 271.483C105.957 270.481 103.761 269.013 101.911 267.162C100.061 265.311 98.5939 263.114 97.5934 260.696C96.593 258.278 96.0787 255.687 96.08 253.07V112.13C96.08 106.846 98.1784 101.778 101.914 98.041C105.649 94.3037 110.716 92.2028 116 92.2001H426.71C431.995 92.2028 437.063 94.3034 440.8 98.0404C444.537 101.777 446.637 106.845 446.64 112.13V130.22Z" fill="#263238" stroke="#263238" stroke-miterlimit="10"/>
<path d="M208.78 217.13H112.84V266.12H208.78V217.13Z" stroke="#263238" stroke-miterlimit="10"/>
<path d="M171.35 240.06L150.84 230.37V249.76L171.35 240.06Z" fill="white" stroke="#263238" stroke-miterlimit="10"/>
<path d="M318.51 217.13H222.57V266.12H318.51V217.13Z" stroke="#263238" stroke-miterlimit="10"/>
<path d="M281.08 240.06L260.57 230.37V249.76L281.08 240.06Z" fill="white" stroke="#263238" stroke-miterlimit="10"/>
<path d="M428.23 217.13H332.29V266.12H428.23V217.13Z" stroke="#263238" stroke-miterlimit="10"/>
<path d="M390.8 240.06L370.29 230.37V249.76L390.8 240.06Z" fill="white" stroke="#263238" stroke-miterlimit="10"/>
<path d="M426.46 197.26H112.91V205.22H426.46V197.26Z" stroke="#263238" stroke-miterlimit="10"/>
<path d="M171.7 197.26H112.91V205.22H171.7V197.26Z" fill="#2928E8" stroke="#263238" stroke-miterlimit="10"/>
<path d="M105.56 192.97L195.99 137.75L292.96 191.14L365.83 131.12L427.69 184.4" stroke="#263238" stroke-miterlimit="10"/>
<path d="M156.46 161.73L172.66 157.19L184.97 165.62L199.23 156.55L210.89 162.38L218.67 156.55L230.84 156.97" stroke="#263238" stroke-miterlimit="10"/>
<path d="M337.9 154.6L354.1 161.73L363.82 151.36L374.19 159.79L385.85 148.77" stroke="#263238" stroke-miterlimit="10"/>
<path d="M135.3 129.28H197.48C197.48 129.28 197.48 125.51 195.6 124.1C195.21 123.84 194.771 123.663 194.31 123.58C192.559 123.232 190.909 122.497 189.478 121.429C188.047 120.362 186.873 118.989 186.04 117.41C185.532 116.319 184.762 115.37 183.799 114.648C182.836 113.926 181.71 113.452 180.52 113.27C172.98 111.85 173.93 118.45 169.69 118.92C165.45 119.39 162.62 110.92 155.55 110.92C148.48 110.92 146.13 122.23 146.13 122.23C146.13 122.23 141.42 117.04 137.18 122.7C132.94 128.36 135.3 129.28 135.3 129.28Z" fill="white" stroke="#263238" stroke-miterlimit="10"/>
<path d="M268 129.28H297C297 129.28 297 127.52 296.12 126.86C295.937 126.744 295.733 126.662 295.52 126.62C294.703 126.457 293.932 126.114 293.265 125.616C292.597 125.118 292.049 124.477 291.66 123.74C291.422 123.231 291.061 122.789 290.612 122.452C290.162 122.116 289.635 121.895 289.08 121.81C285.57 121.15 286.01 124.23 284.03 124.45C282.05 124.67 280.73 120.71 277.43 120.71C274.13 120.71 273.04 125.98 273.04 125.98C273.04 125.98 270.84 123.57 268.86 126.2C266.88 128.83 268 129.28 268 129.28Z" fill="white" stroke="#263238" stroke-miterlimit="10"/>
<path d="M112.43 129.28H141.43C141.43 129.28 141.43 127.52 140.55 126.86C140.367 126.744 140.163 126.662 139.95 126.62C139.132 126.459 138.361 126.116 137.693 125.618C137.025 125.12 136.477 124.478 136.09 123.74C135.852 123.231 135.492 122.789 135.042 122.452C134.592 122.116 134.066 121.895 133.51 121.81C130 121.15 130.44 124.23 128.46 124.45C126.48 124.67 125.16 120.71 121.86 120.71C118.56 120.71 117.46 125.98 117.46 125.98C117.46 125.98 115.27 123.57 113.29 126.2C111.31 128.83 112.43 129.28 112.43 129.28Z" fill="white" stroke="#263238" stroke-miterlimit="10"/>
<path d="M347.68 149.76C347.68 166.52 343.11 180.11 337.47 180.11C331.83 180.11 327.25 166.52 327.25 149.76C327.25 133 331.83 103 337.47 103C343.11 103 347.68 133 347.68 149.76Z" fill="#2928E8" stroke="#263238" stroke-miterlimit="10"/>
<path d="M335.83 196.65L337.05 123.77L339.5 197.26L335.83 196.65Z" fill="#263238"/>
<path d="M251.07 162C251.07 174.46 247.67 184.56 243.48 184.56C239.29 184.56 235.88 174.46 235.88 162C235.88 149.54 239.28 127.2 243.48 127.2C247.68 127.2 251.07 149.48 251.07 162Z" fill="#2928E8" stroke="#263238" stroke-miterlimit="10"/>
<path d="M242.26 196.81L243.17 142.63L244.99 197.26L242.26 196.81Z" fill="#263238"/>
<path d="M417.61 162C417.61 174.46 414.21 184.56 410.01 184.56C405.81 184.56 402.42 174.46 402.42 162C402.42 149.54 405.82 127.2 410.01 127.2C414.2 127.2 417.61 149.48 417.61 162Z" fill="#2928E8" stroke="#263238" stroke-miterlimit="10"/>
<path d="M408.8 196.81L409.71 142.63L411.53 197.26L408.8 196.81Z" fill="#263238"/>
<g opacity="0.3">
<path d="M272.27 50.6997V28.3397C272.27 27.3928 272.646 26.4848 273.316 25.8153C273.985 25.1458 274.893 24.7697 275.84 24.7697H295.22C296.167 24.7697 297.075 25.1458 297.744 25.8153C298.414 26.4848 298.79 27.3928 298.79 28.3397V73.6497C298.791 74.1193 298.7 74.5846 298.521 75.0189C298.342 75.4532 298.08 75.8479 297.748 76.1805C297.416 76.5131 297.022 76.7769 296.588 76.957C296.155 77.137 295.69 77.2297 295.22 77.2297H275.84" stroke="black" stroke-miterlimit="10"/>
<path d="M274.64 50.6997V30.4397H296.4V71.5697H279.42" stroke="black" stroke-miterlimit="10"/>
<path d="M276.85 50.6993H229.53C228.111 50.6993 226.96 51.85 226.96 53.2693V74.6593C226.96 76.0787 228.111 77.2293 229.53 77.2293H276.85C278.269 77.2293 279.42 76.0787 279.42 74.6593V53.2693C279.42 51.85 278.269 50.6993 276.85 50.6993Z" stroke="black" stroke-miterlimit="10"/>
<path d="M273.75 53.09H232.62V74.85H273.75V53.09Z" stroke="black" stroke-miterlimit="10"/>
<path d="M268.55 30.7892C265.343 31.5978 262.439 33.3183 260.188 35.7424C257.938 38.1666 256.438 41.1907 255.87 44.4492" stroke="black" stroke-miterlimit="10" stroke-linecap="round"/>
<path d="M256 48.0797L258.77 43.2797H253.23L256 48.0797Z" fill="black" stroke="black" stroke-miterlimit="10"/>
</g>
<path d="M29 455.1H478" stroke="#263238" stroke-miterlimit="10"/>
<path d="M315.89 298.191H232.46C226.015 298.191 220.79 303.415 220.79 309.861V387.671C220.79 394.116 226.015 399.341 232.46 399.341H315.89C322.335 399.341 327.56 394.116 327.56 387.671V309.861C327.56 303.415 322.335 298.191 315.89 298.191Z" fill="white" stroke="#B2B2B2" stroke-miterlimit="10"/>
<path d="M209.13 298.191H125.7C119.255 298.191 114.03 303.415 114.03 309.861V387.671C114.03 394.116 119.255 399.341 125.7 399.341H209.13C215.575 399.341 220.8 394.116 220.8 387.671V309.861C220.8 303.415 215.575 298.191 209.13 298.191Z" fill="white" stroke="#B2B2B2" stroke-miterlimit="10"/>
<path d="M174.64 342.47C174.64 342.47 135.48 353.27 128.72 356.65C121.96 360.03 116.57 362.73 119.27 364.75C121.97 366.77 136.83 382.31 148.98 387.75C161.13 393.19 181.39 387.75 200.98 389.1C220.57 390.45 230.68 387.75 230.68 385.72C230.68 383.69 222.58 367.49 209.75 358.04C201.034 351.812 191.769 346.389 182.07 341.84C182.07 341.84 176 337.07 174.64 342.47Z" fill="white" stroke="#B2B2B2" stroke-miterlimit="10"/>
<path d="M117.21 341.79L123.15 386.75H115.2L117.21 341.79Z" fill="#B2B2B2" stroke="#B2B2B2" stroke-miterlimit="10"/>
<path d="M422.66 298.191H339.23C332.785 298.191 327.56 303.415 327.56 309.861V387.671C327.56 394.116 332.785 399.341 339.23 399.341H422.66C429.105 399.341 434.33 394.116 434.33 387.671V309.861C434.33 303.415 429.105 298.191 422.66 298.191Z" fill="white" stroke="#B2B2B2" stroke-miterlimit="10"/>
<path d="M432.39 338.111C432.39 338.111 414.84 335.111 405.82 333.111C396.8 331.111 379.76 330.111 379.76 330.111C379.76 330.111 376.25 331.111 376.76 333.111C377.102 335.092 377.269 337.1 377.26 339.111C377.26 339.111 372.75 355.111 368.26 365.171C363.77 375.231 360.26 382.171 360.26 382.171C360.26 382.171 353.75 384.681 357.76 386.681C361.77 388.681 372.29 388.681 372.29 388.681H435.44L436.44 345.071L432.39 338.111Z" fill="white" stroke="#B2B2B2" stroke-miterlimit="10"/>
<path d="M111.62 462.911H437.42V396.151H114.59L111.62 462.911Z" fill="white" stroke="#B2B2B2" stroke-miterlimit="10"/>
<path d="M109.58 408.001C109.58 408.001 192.42 407.001 222.5 407.001C252.58 407.001 308.29 408.271 322.1 408.271C335.91 408.271 432.1 408.891 432.1 408.891L432.27 403.251L107.66 400.971L109.58 408.001Z" fill="#B2B2B2" stroke="#B2B2B2" stroke-miterlimit="10"/>
<path d="M108.49 404.91C108.49 404.91 340.81 406.91 355.02 406.91C369.23 406.91 431.64 405.84 431.64 405.84V387.12C431.64 387.12 270.37 389 264.2 389C258.03 389 128.88 385 123.94 384.62C119 384.24 108.49 384.62 108.49 384.62V404.91Z" fill="white" stroke="#B2B2B2" stroke-miterlimit="10"/>
<path d="M453.52 337.611H437.65C433.784 337.611 430.65 340.745 430.65 344.611V457.101C430.65 460.967 433.784 464.101 437.65 464.101H453.52C457.386 464.101 460.52 460.967 460.52 457.101V344.611C460.52 340.745 457.386 337.611 453.52 337.611Z" fill="white" stroke="#B2B2B2" stroke-miterlimit="10"/>
<path d="M110.21 337.611H94.3398C90.4739 337.611 87.3398 340.745 87.3398 344.611V457.101C87.3398 460.967 90.4739 464.101 94.3398 464.101H110.21C114.076 464.101 117.21 460.967 117.21 457.101V344.611C117.21 340.745 114.076 337.611 110.21 337.611Z" fill="white" stroke="#B2B2B2" stroke-miterlimit="10"/>
<path d="M39.88 313.2L51.43 423.85" stroke="#B2B2B2" stroke-linecap="round" stroke-linejoin="round"/>
<path d="M49.1501 402.221L44.3301 397.151" stroke="#B2B2B2" stroke-linecap="round" stroke-linejoin="round"/>
<path d="M45.92 398.8C45.9093 397.955 45.7182 397.121 45.3595 396.355C45.0008 395.59 44.4828 394.91 43.84 394.36C42.49 393.16 35.42 390.19 34.75 392.68C34 395.39 41.26 400.71 45.92 398.8Z" fill="white" stroke="#B2B2B2" stroke-miterlimit="10"/>
<path d="M45.92 398.8L39.19 394.61" stroke="#B2B2B2" stroke-linecap="round" stroke-linejoin="round"/>
<path d="M50.3502 413.641L45.6402 409.731" stroke="#B2B2B2" stroke-linecap="round" stroke-linejoin="round"/>
<path d="M47.23 411.39C47.2135 410.553 47.0196 409.729 46.661 408.972C46.3025 408.215 45.7875 407.543 45.15 407C43.81 405.8 36.73 402.82 36.06 405.31C35.33 408 42.57 413.29 47.23 411.39Z" fill="white" stroke="#B2B2B2" stroke-miterlimit="10"/>
<path d="M47.2301 411.391L40.5001 407.191" stroke="#B2B2B2" stroke-linecap="round" stroke-linejoin="round"/>
<path d="M45.8802 370.721L41.1202 366.441" stroke="#B2B2B2" stroke-linecap="round" stroke-linejoin="round"/>
<path d="M42.72 368.1C42.71 367.254 42.5182 366.419 42.1576 365.653C41.797 364.887 41.2761 364.207 40.63 363.66C39.29 362.46 32.22 359.48 31.55 361.97C30.82 364.68 38.05 370 42.72 368.1Z" fill="white" stroke="#B2B2B2" stroke-miterlimit="10"/>
<path d="M42.72 368.101L35.98 363.901" stroke="#B2B2B2" stroke-linecap="round" stroke-linejoin="round"/>
<path d="M47.2 384.1L42.44 379.02" stroke="#B2B2B2" stroke-linecap="round" stroke-linejoin="round"/>
<path d="M43.9998 380.68C44.0003 379.841 43.8223 379.011 43.4775 378.245C43.1327 377.48 42.629 376.796 41.9998 376.24C40.6498 375.04 33.5798 372.06 32.9098 374.56C32.1298 377.26 39.3698 382.58 43.9998 380.68Z" fill="white" stroke="#B2B2B2" stroke-miterlimit="10"/>
<path d="M44.03 380.68L37.3 376.49" stroke="#B2B2B2" stroke-linecap="round" stroke-linejoin="round"/>
<path d="M43.76 350.86L38.9901 346" stroke="#B2B2B2" stroke-linecap="round" stroke-linejoin="round"/>
<path d="M40.5802 347.65C40.5694 346.804 40.3783 345.971 40.0196 345.205C39.6609 344.439 39.1429 343.759 38.5002 343.21C37.1502 342.01 30.0802 339.04 29.4102 341.53C28.6802 344.24 35.9202 349.56 40.5802 347.65Z" fill="white" stroke="#B2B2B2" stroke-miterlimit="10"/>
<path d="M40.58 347.65L33.85 343.46" stroke="#B2B2B2" stroke-linecap="round" stroke-linejoin="round"/>
<path d="M41.4602 329L36.8502 325.47" stroke="#B2B2B2" stroke-linecap="round" stroke-linejoin="round"/>
<path d="M38.44 327.12C38.4293 326.275 38.2382 325.442 37.8795 324.676C37.5208 323.91 37.0028 323.23 36.36 322.68C35.01 321.48 27.94 318.51 27.27 321C26.54 323.71 33.78 329 38.44 327.12Z" fill="white" stroke="#B2B2B2" stroke-miterlimit="10"/>
<path d="M38.44 327.12L31.71 322.93" stroke="#B2B2B2" stroke-linecap="round" stroke-linejoin="round"/>
<path d="M48.68 395.23L52.67 388.74" stroke="#B2B2B2" stroke-linecap="round" stroke-linejoin="round"/>
<path d="M51.4499 390.69C51.289 389.859 51.3056 389.004 51.4986 388.18C51.6916 387.356 52.0567 386.583 52.5699 385.91C53.6399 384.46 59.9399 380.09 61.1199 382.39C62.3899 384.89 56.4099 391.59 51.4499 390.69Z" fill="white" stroke="#B2B2B2" stroke-miterlimit="10"/>
<path d="M51.45 390.69L56.19 386.24" stroke="#B2B2B2" stroke-linecap="round" stroke-linejoin="round"/>
<path d="M45.23 362.12L49.21 355.62" stroke="#B2B2B2" stroke-linecap="round" stroke-linejoin="round"/>
<path d="M48 357.57C47.8362 356.74 47.8522 355.885 48.0472 355.062C48.2421 354.24 48.6114 353.468 49.13 352.8C50.19 351.35 55.13 347.71 56.3 350.01C57.56 352.51 53 358.47 48 357.57Z" fill="white" stroke="#B2B2B2" stroke-miterlimit="10"/>
<path d="M47.9898 357.57L54.0598 351.78" stroke="#B2B2B2" stroke-linecap="round" stroke-linejoin="round"/>
<path d="M43.71 347.56L47.69 341.07" stroke="#B2B2B2" stroke-linecap="round" stroke-linejoin="round"/>
<path d="M46.48 343C46.3128 342.171 46.3262 341.316 46.5195 340.493C46.7128 339.67 47.0813 338.898 47.6 338.23C48.66 336.77 54.97 332.4 56.14 334.7C57.41 337.22 51.43 343.92 46.48 343Z" fill="white" stroke="#B2B2B2" stroke-miterlimit="10"/>
<path d="M46.48 343.021L52.54 337.231" stroke="#B2B2B2" stroke-linecap="round" stroke-linejoin="round"/>
<path d="M41.48 326.23L45.46 319.74" stroke="#B2B2B2" stroke-linecap="round" stroke-linejoin="round"/>
<path d="M44.2502 321.69C44.0893 320.859 44.1059 320.004 44.2989 319.18C44.4919 318.356 44.857 317.583 45.3702 316.91C46.4402 315.46 52.7402 311.09 53.9102 313.39C55.1902 315.89 49.2002 322.59 44.2502 321.69Z" fill="white" stroke="#B2B2B2" stroke-miterlimit="10"/>
<path d="M44.2501 321.69L50.3101 315.89" stroke="#B2B2B2" stroke-linecap="round" stroke-linejoin="round"/>
<path d="M39.78 312.59C39.6191 311.759 39.6357 310.904 39.8288 310.08C40.0218 309.257 40.3869 308.483 40.9 307.81C41.97 306.36 48.27 301.99 49.45 304.29C50.72 306.79 44.74 313.49 39.78 312.59Z" fill="white" stroke="#B2B2B2" stroke-miterlimit="10"/>
<path d="M39.78 312.59L45.84 306.79" stroke="#B2B2B2" stroke-linecap="round" stroke-linejoin="round"/>
<path d="M40.1301 312.84C39.2874 312.916 38.4381 312.811 37.6395 312.532C36.8408 312.252 36.1113 311.805 35.5001 311.22C34.1701 310.01 30.5001 303.28 32.8901 302.36C35.5101 301.35 41.5501 308 40.1301 312.84Z" fill="white" stroke="#B2B2B2" stroke-miterlimit="10"/>
<path d="M40.13 312.84L35.01 306.2" stroke="#B2B2B2" stroke-linecap="round" stroke-linejoin="round"/>
<path d="M57.18 283.38V423.31" stroke="#B2B2B2" stroke-linecap="round" stroke-linejoin="round"/>
<path d="M70.3402 328.441L58.8502 439.101" stroke="#B2B2B2" stroke-linecap="round" stroke-linejoin="round"/>
<path d="M61.28 416.49L58.62 413.45" stroke="#B2B2B2" stroke-linecap="round" stroke-linejoin="round"/>
<path d="M58.62 413.45C58.784 412.621 58.7689 411.767 58.5757 410.944C58.3826 410.122 58.0158 409.35 57.5 408.68C56.43 407.23 50.12 402.86 48.95 405.16C47.68 407.66 53.67 414.36 58.62 413.45Z" fill="white" stroke="#B2B2B2" stroke-miterlimit="10"/>
<path d="M58.62 413.45L52.9 407.96" stroke="#B2B2B2" stroke-linecap="round" stroke-linejoin="round"/>
<path d="M64.5201 384.9L60.5801 381.6" stroke="#B2B2B2" stroke-linecap="round" stroke-linejoin="round"/>
<path d="M61.8102 382.74C61.9697 381.915 61.9513 381.065 61.7565 380.248C61.5616 379.43 61.1947 378.664 60.6802 378C59.6202 376.55 53.3102 372.18 52.1402 374.48C50.8702 377 56.8502 383.65 61.8102 382.74Z" fill="white" stroke="#B2B2B2" stroke-miterlimit="10"/>
<path d="M61.81 382.74L56.08 377.25" stroke="#B2B2B2" stroke-linecap="round" stroke-linejoin="round"/>
<path d="M63.27 399.87L59.29 393.38" stroke="#B2B2B2" stroke-linecap="round" stroke-linejoin="round"/>
<path d="M60.4999 395.33C60.6608 394.5 60.6442 393.645 60.4512 392.821C60.2582 391.997 59.8931 391.223 59.3799 390.55C58.3099 389.1 51.9999 384.731 50.8299 387.031C49.5599 389.531 55.5499 396.23 60.4999 395.33Z" fill="white" stroke="#B2B2B2" stroke-miterlimit="10"/>
<path d="M60.5 395.33L54.78 389.84" stroke="#B2B2B2" stroke-linecap="round" stroke-linejoin="round"/>
<path d="M66.52 364.73L62.71 360.35" stroke="#B2B2B2" stroke-linecap="round" stroke-linejoin="round"/>
<path d="M63.93 362.3C64.094 361.471 64.0788 360.617 63.8857 359.794C63.6925 358.971 63.3258 358.199 62.81 357.53C61.74 356.07 55.43 351.71 54.26 354.01C53 356.51 59 363.2 63.93 362.3Z" fill="white" stroke="#B2B2B2" stroke-miterlimit="10"/>
<path d="M63.93 362.3L58.21 356.81" stroke="#B2B2B2" stroke-linecap="round" stroke-linejoin="round"/>
<path d="M68.5202 345.52L64.8502 339.82" stroke="#B2B2B2" stroke-linecap="round" stroke-linejoin="round"/>
<path d="M66.06 341.77C66.2194 340.941 66.2021 340.087 66.0091 339.265C65.8161 338.443 65.4518 337.671 64.94 337C63.87 335.55 57.56 331.18 56.39 333.48C55.12 336 61.11 342.67 66.06 341.77Z" fill="white" stroke="#B2B2B2" stroke-miterlimit="10"/>
<path d="M66.0599 341.77L60.3399 336.28" stroke="#B2B2B2" stroke-linecap="round" stroke-linejoin="round"/>
<path d="M62.06 410.52L67.3 404.99" stroke="#B2B2B2" stroke-linecap="round" stroke-linejoin="round"/>
<path d="M65.71 406.65C65.7168 405.804 65.9062 404.969 66.2652 404.203C66.6241 403.437 67.1443 402.757 67.79 402.21C69.13 401.01 76.2 398.03 76.87 400.52C77.6 403.23 70.37 408.55 65.71 406.65Z" fill="white" stroke="#B2B2B2" stroke-miterlimit="10"/>
<path d="M65.71 406.651L72.83 402.231" stroke="#B2B2B2" stroke-linecap="round" stroke-linejoin="round"/>
<path d="M65.5 377.41L70.73 371.88" stroke="#B2B2B2" stroke-linecap="round" stroke-linejoin="round"/>
<path d="M69.1402 373.53C69.1509 372.684 69.342 371.851 69.7007 371.085C70.0594 370.32 70.5775 369.639 71.2202 369.09C72.5702 367.89 79.6402 364.91 80.3102 367.4C81.0002 370.11 73.8002 375.43 69.1402 373.53Z" fill="white" stroke="#B2B2B2" stroke-miterlimit="10"/>
<path d="M69.1402 373.53L76.2702 369.11" stroke="#B2B2B2" stroke-linecap="round" stroke-linejoin="round"/>
<path d="M67.0098 362.85L72.2398 357.32" stroke="#B2B2B2" stroke-linecap="round" stroke-linejoin="round"/>
<path d="M70.65 359.001C70.6594 358.155 70.8499 357.321 71.2087 356.555C71.5675 355.789 72.0862 355.109 72.73 354.561C74.08 353.361 81.15 350.381 81.82 352.871C82.55 355.561 75.31 360.881 70.65 359.001Z" fill="white" stroke="#B2B2B2" stroke-miterlimit="10"/>
<path d="M70.65 358.98L77.78 354.56" stroke="#B2B2B2" stroke-linecap="round" stroke-linejoin="round"/>
<path d="M69.16 340.43L74.46 335.99" stroke="#B2B2B2" stroke-linecap="round" stroke-linejoin="round"/>
<path d="M72.87 337.64C72.8836 336.79 73.081 335.953 73.4487 335.187C73.8164 334.42 74.3456 333.743 75 333.2C76.34 332 83.41 329.02 84.08 331.51C84.76 334.22 77.53 339.55 72.87 337.64Z" fill="white" stroke="#B2B2B2" stroke-miterlimit="10"/>
<path d="M72.8702 337.64L79.9902 333.22" stroke="#B2B2B2" stroke-miterlimit="10"/>
<path d="M70.3702 327.82C70.3796 326.974 70.5701 326.14 70.9289 325.374C71.2877 324.609 71.8064 323.928 72.4502 323.38C73.7902 322.18 80.8602 319.2 81.5302 321.69C82.2602 324.4 75.0002 329.72 70.3702 327.82Z" fill="white" stroke="#B2B2B2" stroke-miterlimit="10"/>
<path d="M70.3702 327.821L77.4902 323.401" stroke="#B2B2B2" stroke-linecap="round" stroke-linejoin="round"/>
<path d="M70.66 328.14C69.8194 328.041 69.0098 327.762 68.2854 327.324C67.5611 326.886 66.9387 326.298 66.46 325.6C65.46 324.14 63.18 316.8 65.73 316.39C68.5 316 73 323.7 70.66 328.14Z" fill="white" stroke="#B2B2B2" stroke-miterlimit="10"/>
<path d="M70.66 328.14L67.01 320.59" stroke="#B2B2B2" stroke-linecap="round" stroke-linejoin="round"/>
<path d="M56.9902 402.021L52.6602 396.231" stroke="#B2B2B2" stroke-linecap="round" stroke-linejoin="round"/>
<path d="M54.0701 398C54.146 397.158 54.0407 396.309 53.7613 395.51C53.4819 394.711 53.0348 393.982 52.4501 393.37C51.2401 392.04 44.5201 388.37 43.5901 390.75C42.5801 393.41 49.2301 399.45 54.0701 398Z" fill="white" stroke="#B2B2B2" stroke-miterlimit="10"/>
<path d="M54.07 398.04L47.8 393.17" stroke="#B2B2B2" stroke-linecap="round" stroke-linejoin="round"/>
<path d="M57.1402 374.11L52.6602 369.93" stroke="#B2B2B2" stroke-linecap="round" stroke-linejoin="round"/>
<path d="M54.07 371.75C54.1467 370.906 54.0418 370.055 53.7624 369.255C53.483 368.454 53.0355 367.723 52.45 367.11C51.24 365.78 44.52 362.11 43.59 364.5C42.58 367.11 49.23 373.16 54.07 371.75Z" fill="white" stroke="#B2B2B2" stroke-miterlimit="10"/>
<path d="M54.07 371.75L47.8 366.87" stroke="#B2B2B2" stroke-linecap="round" stroke-linejoin="round"/>
<path d="M57.2902 345.1L52.6602 339.06" stroke="#B2B2B2" stroke-linecap="round" stroke-linejoin="round"/>
<path d="M54.0701 340.871C54.146 340.028 54.0407 339.179 53.7613 338.38C53.4819 337.582 53.0348 336.852 52.4501 336.241C51.2401 334.911 44.5201 331.241 43.5901 333.621C42.5801 336.241 49.2301 342.281 54.0701 340.871Z" fill="white" stroke="#B2B2B2" stroke-miterlimit="10"/>
<path d="M54.07 340.87L47.8 336" stroke="#B2B2B2" stroke-linecap="round" stroke-linejoin="round"/>
<path d="M56.9902 322.41L52.6602 318.51" stroke="#B2B2B2" stroke-linecap="round" stroke-linejoin="round"/>
<path d="M54.07 320.32C54.1466 319.477 54.0416 318.628 53.7621 317.829C53.4827 317.031 53.0352 316.301 52.45 315.69C51.24 314.35 44.52 310.69 43.59 313.07C42.58 315.69 49.23 321.73 54.07 320.32Z" fill="white" stroke="#B2B2B2" stroke-miterlimit="10"/>
<path d="M54.07 320.32L47.8 315.45" stroke="#B2B2B2" stroke-linecap="round" stroke-linejoin="round"/>
<path d="M57.2401 301.85L52.7401 298.55" stroke="#B2B2B2" stroke-linecap="round" stroke-linejoin="round"/>
<path d="M54.0701 299.68C54.1527 298.829 54.0507 297.97 53.7711 297.163C53.4916 296.355 53.041 295.617 52.4501 295C51.2401 293.67 44.5201 290 43.5901 292.39C42.5801 295 49.2301 301.09 54.0701 299.68Z" fill="white" stroke="#B2B2B2" stroke-miterlimit="10"/>
<path d="M54.0699 299.68L47.7999 294.81" stroke="#B2B2B2" stroke-linecap="round" stroke-linejoin="round"/>
<path d="M58.0801 409L61.8201 404.26" stroke="#B2B2B2" stroke-linecap="round" stroke-linejoin="round"/>
<path d="M60.41 406.07C60.3309 405.229 60.4317 404.382 60.7059 403.583C60.9801 402.785 61.4212 402.054 62 401.44C63.21 400.11 69.94 396.44 70.86 398.82C71.89 401.44 65.24 407.48 60.41 406.07Z" fill="white" stroke="#B2B2B2" stroke-miterlimit="10"/>
<path d="M60.4102 406.071L67.0402 400.941" stroke="#B2B2B2" stroke-linecap="round" stroke-linejoin="round"/>
<path d="M57.19 368.481L61.82 362.441" stroke="#B2B2B2" stroke-linecap="round" stroke-linejoin="round"/>
<path d="M60.4099 364.25C60.3301 363.409 60.4307 362.561 60.7049 361.763C60.9791 360.965 61.4206 360.234 61.9999 359.62C63.2099 358.28 69.9399 354.62 70.8599 357C71.8899 359.62 65.2399 365.66 60.4099 364.25Z" fill="white" stroke="#B2B2B2" stroke-miterlimit="10"/>
<path d="M60.41 364.25L67.04 359.12" stroke="#B2B2B2" stroke-linecap="round" stroke-linejoin="round"/>
<path d="M57.19 347.84L61.82 341.79" stroke="#B2B2B2" stroke-linecap="round" stroke-linejoin="round"/>
<path d="M60.4101 343.61C60.3377 342.773 60.4418 341.93 60.7156 341.136C60.9895 340.342 61.4271 339.614 62.0001 339C63.2101 337.67 69.9401 334 70.8601 336.39C71.8901 339 65.2401 345 60.4101 343.61Z" fill="white" stroke="#B2B2B2" stroke-miterlimit="10"/>
<path d="M60.4102 343.61L67.0402 338.47" stroke="#B2B2B2" stroke-linecap="round" stroke-linejoin="round"/>
<path d="M57.19 320.55L61.82 314.51" stroke="#B2B2B2" stroke-linecap="round" stroke-linejoin="round"/>
<path d="M60.41 316.32C60.3309 315.479 60.4317 314.632 60.7059 313.833C60.9801 313.035 61.4212 312.304 62 311.69C63.21 310.36 69.94 306.69 70.86 309.07C71.89 311.69 65.24 317.73 60.41 316.32Z" fill="white" stroke="#B2B2B2" stroke-miterlimit="10"/>
<path d="M60.4102 316.321L67.0402 311.191" stroke="#B2B2B2" stroke-linecap="round" stroke-linejoin="round"/>
<path d="M57.39 297.01L61.93 293.46" stroke="#B2B2B2" stroke-linecap="round" stroke-linejoin="round"/>
<path d="M60.41 294.871C60.3309 294.03 60.4317 293.182 60.7059 292.384C60.9801 291.586 61.4212 290.855 62 290.241C63.21 288.911 69.94 285.241 70.86 287.621C71.89 290.241 65.24 296.281 60.41 294.871Z" fill="white" stroke="#B2B2B2" stroke-miterlimit="10"/>
<path d="M60.41 294.87L67.04 289.74" stroke="#B2B2B2" stroke-linecap="round" stroke-linejoin="round"/>
<path d="M56.91 285.36C56.8328 284.518 56.9365 283.67 57.2142 282.871C57.4919 282.072 57.9371 281.343 58.52 280.73C59.73 279.39 66.46 275.73 67.38 278.11C68.39 280.73 61.74 286.77 56.91 285.36Z" fill="white" stroke="#B2B2B2" stroke-miterlimit="10"/>
<path d="M56.9102 285.361L63.5402 280.231" stroke="#B2B2B2" stroke-linecap="round" stroke-linejoin="round"/>
<path d="M57.23 285.64C56.3845 285.629 55.5511 285.438 54.7854 285.08C54.0197 284.721 53.3394 284.203 52.79 283.56C51.59 282.21 48.63 275.14 51.12 274.47C53.83 273.74 59.14 281 57.23 285.64Z" fill="white" stroke="#B2B2B2" stroke-miterlimit="10"/>
<path d="M57.2299 285.64L52.8199 278.51" stroke="#B2B2B2" stroke-linecap="round" stroke-linejoin="round"/>
<path d="M62.9298 459.61H48.1098L46.2598 422.18H64.7898L62.9298 459.61Z" fill="#B2B2B2" stroke="#B2B2B2" stroke-miterlimit="10"/>
<path d="M262.96 487.85C304.293 487.85 337.8 481.179 337.8 472.95C337.8 464.721 304.293 458.05 262.96 458.05C221.627 458.05 188.12 464.721 188.12 472.95C188.12 481.179 221.627 487.85 262.96 487.85Z" fill="#263238" stroke="#263238" stroke-miterlimit="10"/>
<path d="M218.41 458.27C218.41 458.27 215.74 460.94 219.25 465.85C222.76 470.76 232 472 235.94 471.18C239.88 470.36 242.4 469.08 247.03 469.78C251.66 470.48 252.22 470.48 252.22 470.48C252.22 470.48 237.35 463.61 229.35 460.1C221.35 456.59 218.55 457.85 218.41 458.27Z" fill="white" stroke="#263238" stroke-miterlimit="10"/>
<path d="M243 430.05C243 430.05 221.3 421.05 210.68 418.3C200.06 415.55 189.2 415.58 188.07 422.59C186.94 429.6 186.26 432.09 189.2 435.93C192.14 439.77 236.44 461 255 464.64C273.56 468.28 278.88 473.11 295.38 473.79C311.88 474.47 325.75 470.74 328.47 462.38C331.19 454.02 333.47 447.46 331.18 442.26C330.073 439.528 328.628 436.944 326.88 434.57C326.88 434.57 311.29 423.27 295.01 424.17C278.73 425.07 262.69 430.28 255.23 430.73C251.141 431.05 247.028 430.821 243 430.05Z" fill="#2928E8" stroke="#263238" stroke-miterlimit="10"/>
<path d="M253.19 439.55L264.88 450.41" stroke="#263238" stroke-miterlimit="10"/>
<path d="M219.94 362.46C219.94 362.46 216.33 364.27 215.87 365.63C215.41 366.99 191 411.52 192.14 413.1C193.28 414.68 198.24 421.24 203.22 421.24C208.2 421.24 229 394.56 229 394.56C229 394.56 239.62 414.68 242.11 419.2C242.11 419.2 238.94 421.91 239.62 423.27C241.483 427.817 244.606 431.737 248.62 434.57C254.72 438.64 260.83 441.57 269.62 440C278.41 438.43 283.41 435.48 290.62 430.73C297.83 425.98 314.8 429.6 319.32 435.48C323.84 441.36 328.14 440.22 329.32 438.64C330.5 437.06 332.03 432.76 329.32 427.79C326.61 422.82 313.72 395.69 309.65 381.45C305.58 367.21 298.13 353.65 292.02 352.07C285.91 350.49 283.66 350.48 283.66 350.48L252.39 347.42L219.94 362.46Z" fill="white" stroke="#263238" stroke-miterlimit="10"/>
<path d="M250.87 382.89C251.87 389.01 253.59 397.49 255.53 402.43C258.79 410.77 260.24 415.49 260.24 415.49L257.7 422.74L262.78 431.08" stroke="#263238" stroke-miterlimit="10"/>
<path d="M249.72 375.59C249.72 375.59 249.94 377.19 250.33 379.65" stroke="#263238" stroke-miterlimit="10"/>
<path d="M228.99 394.56L219.48 377.93" stroke="#263238" stroke-miterlimit="10"/>
<path d="M218.7 382.21L217.29 380.78" stroke="#263238" stroke-miterlimit="10"/>
<path d="M226.7 390.401L220.43 383.981" stroke="#263238" stroke-miterlimit="10"/>
<path d="M197.83 403.09C197.83 403.09 198.26 401.78 205.26 403.09C212.26 404.4 214.45 410.53 214.01 412.93C213.57 415.33 208.33 420.81 206.14 421.68C203.95 422.55 201.98 420.59 198.26 417.96C194.54 415.33 190.17 410.53 191.48 407.68C192.79 404.83 197.83 403.09 197.83 403.09Z" fill="white" stroke="#263238" stroke-miterlimit="10"/>
<path d="M237.57 357C237.57 357 237.12 364 237.57 366.94C237.902 368.926 238.356 370.89 238.93 372.82L245.26 367.4L250.69 364.23L263.8 370.34C263.8 370.34 263.8 361.07 263.57 351.34C263.34 341.61 259.95 342.34 258.37 341.84C256.79 341.34 237.57 357 237.57 357Z" fill="white" stroke="#263238" stroke-miterlimit="10"/>
<path d="M240.74 359.75C240.74 359.75 247.07 374.22 249.33 373.09C251.59 371.96 259.05 357.94 259.5 350.94C259.95 343.94 258.37 341.89 258.37 341.89C258.37 341.89 247.97 355.68 246.37 357.49C244.77 359.3 240.74 359.75 240.74 359.75Z" fill="white" stroke="#263238" stroke-miterlimit="10"/>
<path d="M257.58 343.7L256.69 344.11C253.69 348.11 247.57 356.11 246.39 357.49C244.81 359.3 240.74 359.75 240.74 359.75C242.198 363.053 243.833 366.275 245.64 369.4C249.63 361.34 257.58 343.7 257.58 343.7Z" fill="#263238" stroke="#263238" stroke-miterlimit="10"/>
<path d="M219.42 318.17C219.42 318.17 216.76 324.22 217.49 326.64C218.22 329.06 222.81 330.99 222.81 330.99L221.81 317.69C221.81 317.69 220.88 316.72 219.42 318.17Z" fill="#263238" stroke="#263238" stroke-miterlimit="10"/>
<path d="M220.88 317.44C220.88 317.44 221.36 330.27 224.26 336.56C227.16 342.85 228.86 349.14 231.52 352.77C234.18 356.4 238.3 361.24 240.47 361.48C242.64 361.72 246.52 361.24 247.47 360.48C248.42 359.72 255.94 348.14 257.87 344.75C259.8 341.36 259.57 335.56 259.57 335.56C260.156 331.227 260.156 326.834 259.57 322.5C258.57 315.24 247.95 311.12 240.7 311.12C233.45 311.12 220.88 317.44 220.88 317.44Z" fill="white" stroke="#263238" stroke-miterlimit="10"/>
<path d="M237.33 330.751C237.33 330.751 239.51 329.541 245.07 330.511" stroke="#263238" stroke-miterlimit="10"/>
<path d="M230.55 331.72C230.55 331.72 226.44 331.24 224.55 332.93" stroke="#263238" stroke-miterlimit="10"/>
<path d="M232.25 332.45L233.94 336.07L234.18 347.2L239.78 346.2" stroke="#263238" stroke-miterlimit="10"/>
<path d="M236 351.661C236 351.661 243.15 351.801 245.81 350.121C248.47 348.441 248.75 346.481 248.75 346.481" stroke="#263238" stroke-miterlimit="10"/>
<path d="M242.27 334.58C242.53 335.58 242.27 336.46 241.72 336.58C241.17 336.7 240.5 336.06 240.24 335.09C239.98 334.12 240.24 333.21 240.79 333.09C241.34 332.97 242 333.61 242.27 334.58Z" fill="#263238"/>
<path d="M230.57 336C230.83 337 230.57 337.88 230.03 338C229.49 338.12 228.8 337.49 228.54 336.51C228.28 335.53 228.54 334.63 229.09 334.51C229.64 334.39 230.31 335 230.57 336Z" fill="#263238"/>
<path d="M228.62 321.07C228.62 321.07 219.18 320.59 214.62 316.96C210.06 313.33 214.86 304.86 216.07 304.62C217.28 304.38 216.31 306.32 216.31 306.32C216.31 306.32 218 303.17 223.31 301.23C228.62 299.29 226.21 304.14 226.21 304.14C230.777 300.383 236.507 298.33 242.42 298.33C252.34 298.33 256.69 301.23 259.6 305.83C262.51 310.43 261.05 319.14 260.08 324.22C259.11 329.3 253.311 330.51 252.82 329.54C252.33 328.57 251.82 324.22 250.65 323.74C249.48 323.26 245.57 323.98 245.32 322.53C245.07 321.08 246.32 316.53 244.32 315.75C242.32 314.97 233.91 318.65 232.94 320.59C231.97 322.53 228.62 321.07 228.62 321.07Z" fill="#263238" stroke="#263238" stroke-miterlimit="10"/>
<path d="M256 330.51C256 330.51 255 320.59 259.39 320.59C263.78 320.59 263.74 327.85 262.29 331.24C261.289 333.407 259.796 335.311 257.93 336.8" fill="white"/>
<path d="M256 330.51C256 330.51 255 320.59 259.39 320.59C263.78 320.59 263.74 327.85 262.29 331.24C261.289 333.407 259.796 335.311 257.93 336.8" stroke="#263238" stroke-miterlimit="10"/>
<path d="M208.19 423.72C208.19 423.72 213.39 423.5 219.04 428.02C224.69 432.54 234.64 441.13 243.9 448.36C249.889 452.89 256.6 456.376 263.75 458.67C263.75 458.67 257.01 463.51 257.01 467.35C257.159 470.477 257.614 473.582 258.37 476.62C258.37 476.62 253.62 476.39 251.59 475.26C249.56 474.13 249.33 470.74 247.52 470.51C245.71 470.28 233.52 466.22 221.07 460.57C208.62 454.92 188.3 445.62 185.55 433.7C184.72 430.09 185.82 425.7 186.39 422.85C187.22 418.67 192.39 418.3 193.5 418.3" fill="#2928E8"/>
<path d="M208.19 423.72C208.19 423.72 213.39 423.5 219.04 428.02C224.69 432.54 234.64 441.13 243.9 448.36C249.889 452.89 256.6 456.376 263.75 458.67C263.75 458.67 257.01 463.51 257.01 467.35C257.159 470.477 257.614 473.582 258.37 476.62C258.37 476.62 253.62 476.39 251.59 475.26C249.56 474.13 249.33 470.74 247.52 470.51C245.71 470.28 233.52 466.22 221.07 460.57C208.62 454.92 188.3 445.62 185.55 433.7C184.72 430.09 185.82 425.7 186.39 422.85C187.22 418.67 192.39 418.3 193.5 418.3" stroke="#263238" stroke-miterlimit="10"/>
<path d="M283.91 407.67C283.91 407.67 241.19 437.28 240.51 439.32C239.83 441.36 232.83 460.32 233.28 463.32C233.73 466.32 235.77 473.72 235.99 474.85C236.21 475.98 236.9 477.34 237.57 477.34C238.24 477.34 238.25 476.43 238.48 475.53C238.71 474.63 237.35 468.75 237.35 468.75L237.57 462.87C237.57 462.87 239.57 471.87 239.84 472.59C240.11 473.31 241.64 476.43 243 476.43C244.36 476.43 243 472.36 243 472.36L241.87 464C241.87 464 245.49 471.91 245.94 473.27C246.087 473.748 246.389 474.163 246.798 474.449C247.208 474.735 247.701 474.877 248.2 474.85C248.88 474.85 248.2 471.91 248.2 471.91L247.52 470.55L245.52 463.55C245.52 463.55 248.68 467.39 249.59 468.55C250.5 469.71 252.3 470.36 252.52 469.23C252.74 468.1 250.04 466.29 250.04 466.29L247.78 460.86C247.78 460.86 249.78 452.73 250.26 450.01C250.573 447.462 250.727 444.897 250.72 442.33C250.72 442.33 295.47 425.15 298.64 424.24C301.81 423.33 304.97 422.44 304.97 419.72C304.97 417 283.91 407.67 283.91 407.67Z" fill="white" stroke="#263238" stroke-miterlimit="10"/>
<path d="M280.07 375.12L286 396.37C286 396.37 282.61 397.73 283.29 398.86C283.97 399.99 286 403.86 286 403.86V405.67L307.47 416.74C307.47 416.74 309.47 421.27 310.86 419.23C312.25 417.19 315.86 414.94 315.86 410.42C315.86 405.9 305.86 374.7 305.23 371.76C304.6 368.82 300.49 360.46 298.23 357.97C297.536 357.246 296.687 356.691 295.746 356.344C294.805 355.998 293.798 355.87 292.8 355.97" fill="white"/>
<path d="M280.07 375.12L286 396.37C286 396.37 282.61 397.73 283.29 398.86C283.97 399.99 286 403.86 286 403.86V405.67L307.47 416.74C307.47 416.74 309.47 421.27 310.86 419.23C312.25 417.19 315.86 414.94 315.86 410.42C315.86 405.9 305.86 374.7 305.23 371.76C304.6 368.82 300.49 360.46 298.23 357.97C297.536 357.246 296.687 356.691 295.746 356.344C294.805 355.998 293.798 355.87 292.8 355.97" stroke="#263238" stroke-miterlimit="10"/>
<path d="M288 400.89C288 400.89 299.08 398.41 306.76 400.44" stroke="#263238" stroke-miterlimit="10"/>
<path d="M299.32 391.711C300.352 391.515 301.4 391.411 302.45 391.401" stroke="#263238" stroke-miterlimit="10"/>
<path d="M286 396.37C289.541 394.68 293.221 393.298 297 392.24" stroke="#263238" stroke-miterlimit="10"/>
<path d="M286.4 402.47C286.4 402.47 281.88 408.13 283.01 409.03C284.14 409.93 301.32 419.43 302.68 420.78C304.04 422.13 307.42 423.04 308.78 421.46C310.14 419.88 314.66 416.71 314.66 413.55C314.66 410.39 297.66 403.6 293.86 402.02C290.06 400.44 287.76 400.67 286.4 402.47Z" fill="white" stroke="#263238" stroke-miterlimit="10"/>
<path d="M202.6 388.79C202.6 388.79 202.49 389.02 202.26 389.44C199.635 394.162 196.533 398.602 193 402.69C187 409.57 188.79 415.18 191 418.88C193.21 422.58 199.29 423.22 201.58 422.71C203.87 422.2 206.81 418.71 207.45 415.82C208.09 412.93 208.6 403.2 209.11 400.82C209.62 398.44 209.74 397.37 209.74 397.37L202.6 388.79Z" fill="white" stroke="#263238" stroke-miterlimit="10"/>
<path d="M201.71 391.34V387.26C201.71 385.6 203.62 383.31 204.77 381.14C205.92 378.97 205.54 376.93 206.68 376.55C207.82 376.17 209.11 378.84 209.11 380.63C209.11 382.42 206.94 384.33 206.94 384.84C206.94 385.35 206.81 386.75 206.81 386.75C206.81 386.75 210.89 394.4 210.64 396.69C210.39 398.98 207.83 399.5 205.92 397.97C204.01 396.44 201.71 391.34 201.71 391.34Z" fill="white" stroke="#263238" stroke-miterlimit="10"/>
<path d="M201.73 386.31L207.01 399.31C207.095 399.513 207.232 399.69 207.408 399.822C207.584 399.954 207.792 400.036 208.01 400.06L233.71 402.91C233.92 402.933 234.132 402.9 234.325 402.815C234.519 402.729 234.686 402.595 234.812 402.426C234.937 402.256 235.016 402.056 235.04 401.846C235.064 401.637 235.033 401.424 234.95 401.23L229.49 388.63C229.409 388.437 229.279 388.269 229.112 388.143C228.945 388.016 228.748 387.936 228.54 387.91L203 384.65C202.791 384.627 202.58 384.658 202.386 384.741C202.193 384.823 202.024 384.954 201.896 385.121C201.768 385.288 201.686 385.486 201.657 385.694C201.628 385.902 201.653 386.115 201.73 386.31Z" fill="#263238" stroke="#263238" stroke-miterlimit="10"/>
<path d="M198.27 383.82C198.27 383.82 198.14 386.37 198.78 387.13C199.42 387.89 206.05 387.51 207.07 387.51C208.09 387.51 208.21 386.11 207.83 385.6C207.45 385.09 203.24 383.69 201.58 383.43C199.92 383.17 198.27 383.18 198.27 383.82Z" fill="white" stroke="#263238" stroke-miterlimit="10"/>
<path d="M200.44 391C200.44 391 201.2 394.19 201.97 394.7C202.74 395.21 211.02 394.95 211.66 394.44C212.3 393.93 212.04 392.44 210.51 392.02C208.98 391.6 202.09 390.49 202.09 390.49C202.09 390.49 200.31 389.81 200.44 391Z" fill="white" stroke="#263238" stroke-miterlimit="10"/>
<path d="M202 394.661C202 394.661 202.63 398.741 203.53 399.251C204.43 399.761 211.43 397.461 212.2 396.441C212.97 395.421 212.32 394.151 211.69 394.441C211.06 394.731 203.11 395.001 202 394.661Z" fill="white" stroke="#263238" stroke-miterlimit="10"/>
<path d="M204.26 399.501C204.26 399.501 205.79 401.801 206.56 401.801C207.33 401.801 212.56 399.631 212.68 398.231C212.8 396.831 212.17 396.441 212.17 396.441C212.17 396.441 205 399.371 204.26 399.501Z" fill="white" stroke="#263238" stroke-miterlimit="10"/>
<path d="M320.41 468.78C321.32 468.55 330.51 465.3 332.06 456.27C334.06 444.54 330.71 440 325.51 432.99C320.31 425.98 316.01 415.36 303.35 417.17C290.69 418.98 284.82 428.7 278.26 436.38C271.7 444.06 256.34 455.59 256.34 455.59C256.34 455.59 270.11 461.07 281.34 464.41C288.12 466.41 294.05 460.12 301.05 456.27C304.957 454.165 308.734 451.827 312.36 449.27" fill="#2928E8"/>
<path d="M320.41 468.78C321.32 468.55 330.51 465.3 332.06 456.27C334.06 444.54 330.71 440 325.51 432.99C320.31 425.98 316.01 415.36 303.35 417.17C290.69 418.98 284.82 428.7 278.26 436.38C271.7 444.06 256.34 455.59 256.34 455.59C256.34 455.59 270.11 461.07 281.34 464.41C288.12 466.41 294.05 460.12 301.05 456.27C304.957 454.165 308.734 451.827 312.36 449.27" stroke="#263238" stroke-miterlimit="10"/>
<path d="M296.61 458.76C296.61 458.76 310.39 454.58 319.16 450.82" stroke="#263238" stroke-miterlimit="10"/>
<path d="M263.75 458.67C263.75 458.67 259.48 458.67 257.61 464.14C256.775 466.797 256.803 469.649 257.691 472.289C258.578 474.928 260.28 477.218 262.55 478.83C266.96 481.9 275.63 482.17 279.37 480.43C282.909 478.794 286.261 476.782 289.37 474.43C291.5 472.7 291.5 471.63 289.63 469.09C287.76 466.55 285.23 465.22 281.36 464.42C277.49 463.62 263.75 458.67 263.75 458.67Z" fill="white" stroke="#263238" stroke-miterlimit="10"/>
<path d="M266.36 459.6L263.75 458.67C263.75 458.67 259.48 458.67 257.61 464.14C256.775 466.797 256.803 469.649 257.691 472.289C258.578 474.928 260.28 477.218 262.55 478.83C264.738 480.195 267.213 481.034 269.78 481.28C269.02 480.94 268.25 480.57 267.49 480.17C263.22 477.9 259.75 474.02 260.15 468.17C260.46 463.48 264.65 460.59 266.36 459.6Z" fill="white" stroke="#263238" stroke-miterlimit="10"/>
</svg>
