<svg width="30" height="30" viewBox="0 0 30 30" fill="none" xmlns="http://www.w3.org/2000/svg">
<g id="029-web design" clip-path="url(#clip0_0_304)">
<g id="Group">
<path id="Vector" d="M0 27.3634C0 28.8173 1.18283 30.0001 2.63672 30.0001H27.3633C28.8172 30.0001 30 28.8173 30 27.3634V16.9923H0V27.3634ZM13.8867 21.9728H25.6055C26.0909 21.9728 26.4844 22.3663 26.4844 22.8517C26.4844 23.3371 26.0909 23.7306 25.6055 23.7306H13.8867C13.4013 23.7306 13.0078 23.3371 13.0078 22.8517C13.0078 22.3663 13.4013 21.9728 13.8867 21.9728ZM13.8867 25.4884H25.6055C26.0909 25.4884 26.4844 25.8819 26.4844 26.3673C26.4844 26.8527 26.0909 27.2462 25.6055 27.2462H13.8867C13.4013 27.2462 13.0078 26.8527 13.0078 26.3673C13.0078 25.8819 13.4013 25.4884 13.8867 25.4884ZM3.51562 20.5079C3.51562 20.0225 3.90914 19.629 4.39453 19.629H10.2539C10.7393 19.629 11.1328 20.0225 11.1328 20.5079V26.3673C11.1328 26.8527 10.7393 27.2462 10.2539 27.2462H4.39453C3.90914 27.2462 3.51562 26.8527 3.51562 26.3673V20.5079Z" fill="white"/>
<path id="Vector_2" d="M5.27344 21.3868H9.375V25.4884H5.27344V21.3868Z" fill="white"/>
<path id="Vector_3" d="M17.9882 11.7863L15.5747 15.2341H18.7078L19.5633 14.0363L17.9882 11.7863Z" fill="white"/>
<path id="Vector_4" d="M20.8682 15.2341H29.1712L25.0197 9.422L20.8682 15.2341Z" fill="white"/>
<path id="Vector_5" d="M0 15.2345H13.4292L17.2683 9.75C17.4328 9.51504 17.7015 9.37512 17.9883 9.37512C18.275 9.37512 18.5438 9.51504 18.7083 9.75L20.647 12.5196L24.3043 7.3994C24.4693 7.16842 24.7356 7.03137 25.0195 7.03137C25.3034 7.03137 25.5698 7.16842 25.7347 7.3994L30 13.3708V5.27356H0L0 15.2345ZM20.918 7.03137C21.4034 7.03137 21.7969 7.42489 21.7969 7.91028C21.7969 8.39567 21.4034 8.78918 20.918 8.78918C20.4326 8.78918 20.0391 8.39567 20.0391 7.91028C20.0391 7.42489 20.4326 7.03137 20.918 7.03137ZM4.39453 7.03137H9.08203C9.56742 7.03137 9.96094 7.42489 9.96094 7.91028C9.96094 8.39567 9.56742 8.78918 9.08203 8.78918H4.39453C3.90914 8.78918 3.51562 8.39567 3.51562 7.91028C3.51562 7.42489 3.90914 7.03137 4.39453 7.03137ZM4.39453 10.547H9.08203C9.56742 10.547 9.96094 10.9405 9.96094 11.4259C9.96094 11.9113 9.56742 12.3048 9.08203 12.3048H4.39453C3.90914 12.3048 3.51562 11.9113 3.51562 11.4259C3.51562 10.9405 3.90914 10.547 4.39453 10.547Z" fill="white"/>
<path id="Vector_6" d="M8.20312 0.00012207H10.5469V3.51575H8.20312V0.00012207Z" fill="white"/>
<path id="Vector_7" d="M4.10156 0.00012207H6.44531V3.51575H4.10156V0.00012207Z" fill="white"/>
<path id="Vector_8" d="M2.34375 0.0167236C1.02727 0.163032 0 1.282 0 2.6368V3.51571H2.34375V0.0167236Z" fill="white"/>
<path id="Vector_9" d="M27.3633 0.00012207H12.3047V3.51575H30V2.63684C30 1.18295 28.8172 0.00012207 27.3633 0.00012207Z" fill="white"/>
</g>
</g>
<defs>
<clipPath id="clip0_0_304">
<rect width="30" height="30" fill="white"/>
</clipPath>
</defs>
</svg>
