<svg width="30" height="30" viewBox="0 0 30 30" fill="none" xmlns="http://www.w3.org/2000/svg">
<g id="028-wifi">
<g id="Group">
<path id="Vector" d="M0 24.6681V25.547C0 27.0009 1.18283 28.1837 2.63672 28.1837H27.3633C28.8172 28.1837 30 27.0009 30 25.547V24.6681H0Z" fill="white"/>
<path id="Vector_2" d="M28.6315 19.9806H1.36846L0.269825 22.9103H29.7302L28.6315 19.9806Z" fill="white"/>
<path id="Vector_3" d="M28.2422 4.45325C28.2422 2.99936 27.0594 1.81653 25.6055 1.81653H4.39453C2.94064 1.81653 1.75781 2.99936 1.75781 4.45325V18.2228H28.2422V4.45325ZM17.2788 14.5C17.1071 14.6716 16.8822 14.7574 16.6573 14.7574C16.4324 14.7574 16.2074 14.6716 16.0359 14.5C15.7592 14.2233 15.3913 14.0709 15.0001 14.0709C14.6088 14.0709 14.2409 14.2233 13.9642 14.5C13.6211 14.8432 13.0645 14.8432 12.7213 14.5C12.378 14.1567 12.378 13.6003 12.7213 13.257C13.9778 12.0005 16.0223 12.0005 17.2788 13.257C17.622 13.6003 17.622 14.1567 17.2788 14.5ZM19.7647 12.0141C19.4214 12.3573 18.865 12.3573 18.5217 12.0141C17.581 11.0734 16.3303 10.5553 15 10.5553C13.6697 10.5553 12.419 11.0734 11.4783 12.0141C11.135 12.3573 10.5786 12.3573 10.2353 12.0141C9.89209 11.6708 9.89209 11.1144 10.2353 10.7711C11.508 9.4984 13.2001 8.7975 15 8.7975C16.7999 8.7975 18.492 9.4984 19.7647 10.7711C20.1079 11.1144 20.1079 11.6708 19.7647 12.0141ZM22.2506 9.52811C21.9074 9.87135 21.3509 9.87135 21.0077 9.52811C17.695 6.21551 12.305 6.21551 8.99232 9.52811C8.64908 9.87135 8.09262 9.87135 7.74937 9.52811C7.40613 9.18487 7.40613 8.6284 7.74937 8.28516C9.68607 6.34846 12.2611 5.28188 15 5.28188C17.7389 5.28188 20.3139 6.34846 22.2506 8.28516C22.5939 8.6284 22.5939 9.18493 22.2506 9.52811Z" fill="white"/>
</g>
</g>
</svg>
