<svg width="65" height="65" viewBox="0 0 65 65" fill="none" xmlns="http://www.w3.org/2000/svg">
<g id="CLOUD" opacity="0.2">
<g id="Group">
<path id="Vector" d="M47.1187 50.1596H10.3674C4.74758 50.1596 0 45.2525 0 39.4444C0 34.8928 2.91513 30.9495 7.18484 29.5819C7.84776 19.6278 15.9919 11.9446 26.0663 11.9446C29.4199 11.9446 32.7142 12.8335 35.5944 14.5155C35.8439 14.6613 36.0254 14.9003 36.0989 15.1799C36.1723 15.4595 36.1317 15.7568 35.986 16.0065C35.914 16.1302 35.8183 16.2385 35.7044 16.3252C35.5905 16.4118 35.4607 16.4752 35.3223 16.5116C35.1839 16.548 35.0396 16.5567 34.8979 16.5372C34.7561 16.5178 34.6195 16.4706 34.496 16.3983C31.9489 14.9109 29.0344 14.1249 26.0663 14.1249C16.9112 14.1249 9.55872 21.2961 9.3272 30.4491C9.32113 30.6902 9.2353 30.9225 9.08315 31.1095C8.93101 31.2966 8.72115 31.4279 8.48642 31.4829C4.77425 32.3557 2.17972 35.6297 2.17972 39.4444C2.17972 44.071 5.93005 47.9793 10.3676 47.9793H47.1188C52.9103 47.9793 57.8037 42.9274 57.8037 36.9466C57.8037 33.3288 55.995 29.9844 52.9646 27.9999C52.723 27.8412 52.5542 27.5932 52.4951 27.3102C52.4361 27.0272 52.4916 26.7323 52.6496 26.4902C52.8083 26.2487 53.0563 26.0799 53.3391 26.0208C53.622 25.9618 53.9168 26.0172 54.1589 26.1751C57.8056 28.5645 59.9834 32.5908 59.9834 36.9472C59.9834 44.1089 54.0915 50.1596 47.1187 50.1596Z" fill="#140B43"/>
<path id="Vector_2" d="M14.8618 31.6253H8.32197C8.17884 31.6254 8.03708 31.5974 7.90482 31.5426C7.77255 31.4879 7.65237 31.4077 7.55116 31.3064C7.44994 31.2052 7.36968 31.085 7.31496 30.9527C7.26024 30.8204 7.23214 30.6786 7.23226 30.5355C7.23214 30.3923 7.26023 30.2505 7.31493 30.1182C7.36963 29.9859 7.44987 29.8656 7.55106 29.7643C7.65225 29.6631 7.77241 29.5827 7.90466 29.5279C8.03691 29.4731 8.17866 29.445 8.32181 29.445H14.8618C15.005 29.4449 15.1467 29.4731 15.279 29.5279C15.4113 29.5827 15.5315 29.663 15.6328 29.7643C15.734 29.8655 15.8143 29.9858 15.8691 30.1181C15.9239 30.2504 15.952 30.3923 15.952 30.5355C15.952 30.6786 15.9237 30.8204 15.869 30.9527C15.8142 31.0849 15.7338 31.2051 15.6326 31.3063C15.5314 31.4075 15.4112 31.4878 15.2789 31.5425C15.1467 31.5973 15.0049 31.6254 14.8618 31.6253ZM50.9021 30.5356H48.5794C47.3159 30.5356 46.2886 29.5081 46.2886 28.2442V27.7052C45.2784 27.4247 44.3068 27.0202 43.396 26.501L43.0105 26.8867C42.1187 27.7786 40.6643 27.7786 39.7724 26.8867L38.129 25.2428C37.2359 24.3495 37.2359 22.8971 38.129 22.0037L38.5144 21.6182C37.9953 20.7071 37.591 19.7352 37.3106 18.7248H36.7719C35.5083 18.7248 34.481 17.6974 34.481 16.4333V14.1103C34.481 12.8462 35.5083 11.8195 36.7719 11.8195H37.3107C37.5911 10.8088 37.9954 9.83676 38.5144 8.92545L38.129 8.53992C37.2359 7.64717 37.2359 6.19481 38.129 5.30078L39.7724 3.65757C40.6641 2.76546 42.118 2.76546 43.0104 3.65757L43.396 4.04246C44.3071 3.5238 45.2786 3.11941 46.2886 2.83845V2.29944C46.2886 1.03553 47.3159 0.00878906 48.5794 0.00878906H50.9021C52.1656 0.00878906 53.1921 1.03617 53.1921 2.29944V2.83845C54.2023 3.11946 55.1741 3.5239 56.0854 4.04262L56.471 3.65773C57.3627 2.76546 58.8164 2.76546 59.7084 3.65773L61.3519 5.30078C62.245 6.19417 62.245 7.64653 61.3519 8.53992L60.9671 8.92545C61.4856 9.83696 61.8899 10.8089 62.1708 11.8193H62.7096C63.9732 11.8193 64.9997 12.8468 64.9997 14.1103V16.4333C64.9997 17.6974 63.9726 18.7248 62.7096 18.7248H62.1708C61.8898 19.7351 61.4855 20.7068 60.9669 21.6182L61.3517 22.0037C62.245 22.8971 62.245 24.3495 61.3517 25.2428L59.7084 26.8867C58.8166 27.7786 57.3627 27.7786 56.471 26.8867L56.0854 26.501C55.1744 27.0202 54.2026 27.4247 53.1923 27.7052V28.2442C53.1928 29.5081 52.1656 30.5356 50.9021 30.5356ZM43.2325 24.0324C43.4415 24.0324 43.6511 24.0919 43.8344 24.2134C44.9901 24.9789 46.2549 25.5048 47.5959 25.778C47.8422 25.8281 48.0635 25.9618 48.2225 26.1565C48.3815 26.3511 48.4683 26.5948 48.4683 26.8461V28.2442C48.4683 28.3052 48.5189 28.3545 48.5794 28.3545H50.9021C50.9313 28.3544 50.9592 28.3427 50.9799 28.322C51.0005 28.3014 51.0122 28.2734 51.0124 28.2442V26.8461C51.0124 26.5948 51.0993 26.3511 51.2583 26.1565C51.4173 25.9618 51.6387 25.8281 51.8849 25.778C53.2264 25.5049 54.4907 24.9789 55.6469 24.2134C56.0761 23.9277 56.6517 23.985 57.0191 24.3518L58.012 25.3452C58.0327 25.3656 58.0606 25.3771 58.0897 25.3771C58.1188 25.3771 58.1467 25.3656 58.1674 25.3452L59.8106 23.7012C59.831 23.6805 59.8424 23.6526 59.8424 23.6236C59.8424 23.5946 59.831 23.5667 59.8106 23.546L58.8178 22.5526C58.6401 22.3749 58.5293 22.1412 58.5041 21.8911C58.4788 21.641 58.5408 21.3899 58.6794 21.1803C59.4445 20.0237 59.9703 18.7591 60.2441 17.4173C60.294 17.171 60.4275 16.9495 60.622 16.7904C60.8165 16.6313 61.06 16.5444 61.3113 16.5445H62.709C62.7383 16.5445 62.7665 16.5328 62.7872 16.5121C62.808 16.4914 62.8198 16.4633 62.82 16.434V14.1108C62.8197 14.0814 62.808 14.0533 62.7872 14.0325C62.7665 14.0117 62.7384 14 62.709 13.9998H61.3113C61.06 13.9998 60.8165 13.9129 60.622 13.7539C60.4275 13.5948 60.294 13.3733 60.2441 13.127C59.9703 11.7858 59.4445 10.5206 58.6794 9.364C58.5407 9.15446 58.4787 8.90339 58.504 8.65336C58.5292 8.40334 58.6401 8.16972 58.8178 7.99213L59.8106 6.99829C59.831 6.97758 59.8424 6.94971 59.8424 6.92067C59.8424 6.89163 59.831 6.86375 59.8106 6.84305L58.1672 5.19921C58.1465 5.17884 58.1187 5.16743 58.0896 5.16743C58.0606 5.16743 58.0327 5.17884 58.012 5.19921L57.0191 6.19289C56.8414 6.37063 56.6077 6.48151 56.3577 6.50677C56.1077 6.53203 55.8566 6.47012 55.6469 6.33152C54.4913 5.56541 53.2264 5.0395 51.8849 4.76625C51.6387 4.71616 51.4173 4.58246 51.2583 4.38781C51.0993 4.19316 51.0124 3.94951 51.0124 3.69814V2.30008C51.0122 2.27086 51.0005 2.24289 50.9799 2.22223C50.9592 2.20157 50.9313 2.18989 50.9021 2.18972H48.5794C48.5501 2.18972 48.522 2.20132 48.5011 2.222C48.4803 2.24267 48.4685 2.27074 48.4683 2.30008V3.69814C48.4683 3.94949 48.3815 4.19312 48.2225 4.38777C48.0635 4.58242 47.8422 4.71612 47.5959 4.76625C46.2549 5.03934 44.9902 5.56605 43.8344 6.33136C43.6248 6.47004 43.3737 6.53201 43.1237 6.50678C42.8736 6.48154 42.64 6.37066 42.4623 6.19289L41.4688 5.19921C41.4481 5.17879 41.4202 5.16735 41.3912 5.16735C41.3621 5.16735 41.3342 5.17879 41.3135 5.19921L39.6699 6.84305C39.6496 6.86375 39.6381 6.89163 39.6381 6.92067C39.6381 6.94971 39.6496 6.97758 39.6699 6.99829L40.6635 7.99213C40.8412 8.16972 40.9521 8.40334 40.9774 8.65336C41.0026 8.90339 40.9406 9.15446 40.8019 9.364C40.036 10.5206 39.5109 11.7858 39.2371 13.127C39.187 13.3733 39.0533 13.5948 38.8587 13.7538C38.6641 13.9129 38.4205 13.9998 38.1692 13.9998H36.7717C36.7424 14.0001 36.7144 14.0119 36.6937 14.0326C36.6731 14.0534 36.6614 14.0815 36.6612 14.1108V16.434C36.6612 16.4947 36.7112 16.5445 36.7717 16.5445H38.1692C38.4205 16.5445 38.6641 16.6314 38.8587 16.7905C39.0533 16.9495 39.187 17.171 39.2371 17.4173C39.5109 18.7591 40.0367 20.0237 40.8018 21.1803C40.9405 21.3899 41.0025 21.6411 40.9773 21.8912C40.9521 22.1413 40.8412 22.375 40.6635 22.5528L39.6699 23.546C39.6496 23.5667 39.6381 23.5946 39.6381 23.6236C39.6381 23.6526 39.6496 23.6805 39.6699 23.7012L41.3133 25.3451C41.334 25.3655 41.3619 25.3769 41.391 25.3769C41.4201 25.3769 41.448 25.3655 41.4687 25.3451L42.4621 24.3518C42.563 24.2503 42.6831 24.1699 42.8153 24.115C42.9475 24.0602 43.0892 24.0321 43.2323 24.0324H43.2325ZM49.7407 20.4966C46.8605 20.4966 44.5173 18.1527 44.5173 15.2718C44.5173 12.3909 46.8605 10.0471 49.7407 10.0471C52.621 10.0471 54.9641 12.3909 54.9641 15.2718C54.9641 18.1527 52.6208 20.4966 49.7407 20.4966ZM49.7407 12.228C48.0629 12.228 46.6978 13.5936 46.6978 15.2718C46.6978 16.95 48.0629 18.3156 49.7407 18.3156C51.4184 18.3156 52.7837 16.95 52.7837 15.2718C52.7837 13.5936 51.4184 12.228 49.7407 12.228Z" fill="#140B43"/>
</g>
</g>
</svg>
