<svg width="21" height="21" viewBox="0 0 21 21" fill="none" xmlns="http://www.w3.org/2000/svg">
<path d="M6.40625 1.47656L7.96875 5.22656C8.24219 5.85156 8.08594 6.59375 7.53906 7.02344L5.625 8.625C6.91406 11.3594 9.14062 13.5859 11.875 14.875L13.4766 12.9609C13.9062 12.4141 14.6484 12.2578 15.2734 12.5312L19.0234 14.0938C19.7656 14.3672 20.1172 15.1875 19.9219 15.9297L18.9844 19.3672C18.7891 20.0312 18.2031 20.5 17.5 20.5C7.8125 20.5 0 12.6875 0 3C0 2.29688 0.46875 1.71094 1.13281 1.51562L4.57031 0.578125C5.3125 0.382812 6.13281 0.734375 6.40625 1.47656Z" fill="#95D5EE"/>
</svg>
