<svg width="80" height="80" viewBox="0 0 80 80" fill="none" xmlns="http://www.w3.org/2000/svg">
<g id="Group 1000008293">
<circle id="Ellipse 1590" cx="40" cy="40" r="40" fill="#95D5EE"/>
<g id="Group">
<path id="Vector" d="M29.0625 40.7031V44.2188H39.2188V40.7031C39.2188 37.903 36.9407 35.625 34.1406 35.625C31.3405 35.625 29.0625 37.903 29.0625 40.7031Z" fill="#140B43"/>
<path id="Vector_2" d="M34.1406 33.2812C35.435 33.2812 36.4844 32.2319 36.4844 30.9375C36.4844 29.6431 35.435 28.5938 34.1406 28.5938C32.8462 28.5938 31.7969 29.6431 31.7969 30.9375C31.7969 32.2319 32.8462 33.2812 34.1406 33.2812Z" fill="#140B43"/>
<path id="Vector_3" d="M56.4844 20H50.625V44.2188H56.4844C58.426 44.2188 60 42.6448 60 40.7031V23.5156C60 21.574 58.426 20 56.4844 20ZM56.4844 34.4531C56.4844 35.1003 55.9597 35.625 55.3125 35.625C54.6653 35.625 54.1406 35.1003 54.1406 34.4531V29.7656C54.1406 29.1184 54.6653 28.5938 55.3125 28.5938C55.9597 28.5938 56.4844 29.1184 56.4844 29.7656V34.4531Z" fill="#140B43"/>
<path id="Vector_4" d="M20 23.5156V40.7031C20 42.6448 21.574 44.2188 23.5156 44.2188H26.7188V40.7031C26.7188 37.8486 28.3388 35.3658 30.7076 34.1246C29.9299 33.2876 29.4531 32.1674 29.4531 30.9375C29.4531 28.3528 31.5559 26.25 34.1406 26.25C36.7253 26.25 38.8281 28.3528 38.8281 30.9375C38.8281 32.1674 38.3513 33.2876 37.5737 34.1246C39.9424 35.3658 41.5625 37.8486 41.5625 40.7031V44.2188H48.2812V20H23.5156C21.574 20 20 21.574 20 23.5156ZM42.3438 23.5156H44.6875C45.3347 23.5156 45.8594 24.0403 45.8594 24.6875C45.8594 25.3347 45.3347 25.8594 44.6875 25.8594H42.3438C41.6966 25.8594 41.1719 25.3347 41.1719 24.6875C41.1719 24.0403 41.6966 23.5156 42.3438 23.5156ZM24.7656 23.5156C25.4128 23.5156 25.9375 24.0403 25.9375 24.6875C25.9375 25.3347 25.4128 25.8594 24.7656 25.8594C24.1184 25.8594 23.5938 25.3347 23.5938 24.6875C23.5938 24.0403 24.1184 23.5156 24.7656 23.5156Z" fill="#140B43"/>
<path id="Vector_5" d="M35.3126 48.9062H44.6876C46.2153 48.9062 47.5179 47.9265 48.0017 46.5625H31.9985C32.4823 47.9265 33.7849 48.9062 35.3126 48.9062Z" fill="#140B43"/>
<path id="Vector_6" d="M36.4844 58.8281C36.4844 59.4753 37.0091 60 37.6562 60H42.3438C42.9909 60 43.5156 59.4753 43.5156 58.8281V51.25H36.4844V58.8281Z" fill="#140B43"/>
</g>
</g>
</svg>
