<svg width="80" height="80" viewBox="0 0 80 80" fill="none" xmlns="http://www.w3.org/2000/svg">
<g id="Group 1000008297">
<circle id="Ellipse 1592" cx="40" cy="40" r="40" fill="#F9A78F"/>
<g id="Group">
<path id="Vector" d="M52.4219 53.75H29.7656C29.1184 53.75 28.5938 54.2747 28.5938 54.9219V56.875C28.5938 58.0363 28.2288 59.1134 27.6091 60H50.4687C52.1946 60 53.5937 58.6009 53.5937 56.875V54.9219C53.5937 54.2747 53.0691 53.75 52.4219 53.75Z" fill="#140B43"/>
<path id="Vector_2" d="M42.3912 46.2295L47.4575 41.3896L43.3238 38.4951L40.5086 44.9112C39.9939 46.0843 41.465 47.1143 42.3912 46.2295Z" fill="#140B43"/>
<path id="Vector_3" d="M58.8337 20.7435C57.5967 19.8773 55.8917 20.178 55.0255 21.415L53.6812 23.3349L58.161 26.4716L59.5053 24.5517C60.3715 23.3147 60.0708 21.6097 58.8337 20.7435Z" fill="#140B43"/>
<path id="Vector_4" d="M44.5037 36.4619L52.3513 25.2647L56.8302 28.4037L48.9826 39.601L44.5037 36.4619Z" fill="#140B43"/>
<path id="Vector_5" d="M48.9062 51.4062V43.247L44.0101 47.9242C43.3473 48.5574 42.4889 48.9062 41.5933 48.9062C41.5931 48.9062 41.593 48.9062 41.5927 48.9062C41.229 48.9062 36.0155 48.9062 36.0155 48.9062C35.3495 48.9062 34.8133 48.3507 34.845 47.6777C34.8747 47.0474 35.4176 46.5625 36.0487 46.5625H38.2634C37.9671 45.7324 37.9944 44.8079 38.3623 43.9696L39.6241 41.0937H25.8925C25.2615 41.0937 24.7185 40.6088 24.6888 39.9785C24.6571 39.3055 25.1934 38.75 25.8594 38.75H40.6525L41.6809 36.4062H25.8925C25.2615 36.4062 24.7185 35.9213 24.6888 35.291C24.6571 34.618 25.1934 34.0625 25.8594 34.0625H43.3087L48.9062 26.0681V21.1719C48.9062 20.5247 48.3815 20 47.7344 20H21.1719C20.5247 20 20 20.5247 20 21.1719V56.8133C20 58.5655 21.434 60.033 23.1859 59.9994C24.8837 59.9669 26.25 58.5805 26.25 56.875V54.9219C26.25 52.9802 27.824 51.4062 29.7656 51.4062H48.9062ZM30.5469 24.6875H38.3594C39.0066 24.6875 39.5312 25.2122 39.5312 25.8594C39.5312 26.5066 39.0066 27.0312 38.3594 27.0312H30.5469C29.8997 27.0312 29.375 26.5066 29.375 25.8594C29.375 25.2122 29.8997 24.6875 30.5469 24.6875ZM25.8594 29.375H43.0469C43.6941 29.375 44.2187 29.8997 44.2187 30.5469C44.2187 31.1941 43.6941 31.7187 43.0469 31.7187H25.8594C25.2122 31.7187 24.6875 31.1941 24.6875 30.5469C24.6875 29.8997 25.2122 29.375 25.8594 29.375ZM25.8594 45.7812C25.2122 45.7812 24.6875 45.2565 24.6875 44.6094C24.6875 43.9622 25.2122 43.4375 25.8594 43.4375H32.1094C32.7566 43.4375 33.2812 43.9622 33.2812 44.6094C33.2812 45.2565 32.7566 45.7812 32.1094 45.7812H25.8594Z" fill="#140B43"/>
</g>
</g>
</svg>
