<svg width="108" height="131" viewBox="0 0 108 131" fill="none" xmlns="http://www.w3.org/2000/svg">
<g filter="url(#filter0_dddd_0_77)">
<circle cx="54" cy="43" r="40" fill="#F9A78F"/>
</g>
<path d="M68.8438 27.8438H60.6406V26.5156C60.6406 24.5771 59.0635 23 57.125 23H50.875C48.9365 23 47.3594 24.5771 47.3594 26.5156V27.8438H39.1562C37.2177 27.8438 35.6406 29.4209 35.6406 31.3594V34.875H44.9312C47.2107 32.4707 50.4331 30.9688 54 30.9688C57.5669 30.9688 60.7892 32.4707 63.0688 34.875H72.3594V31.3594C72.3594 29.4209 70.7823 27.8438 68.8438 27.8438ZM49.7031 27.8438V26.5156C49.7031 25.8695 50.2288 25.3438 50.875 25.3438H57.125C57.7712 25.3438 58.2969 25.8695 58.2969 26.5156V27.8438H49.7031Z" fill="#140B43"/>
<path d="M66.5 43.4688C66.5 46.815 65.1915 49.9582 62.8156 52.3195C62.4174 52.7153 62.0988 53.1566 61.8671 53.625H68.8438C70.7823 53.625 72.3594 52.0479 72.3594 50.1094V37.2188H64.822C65.8886 39.0584 66.5 41.1935 66.5 43.4688Z" fill="#140B43"/>
<path d="M41.5 43.4688C41.5 41.1935 42.1114 39.0584 43.178 37.2188H35.6406V50.1094C35.6406 52.0479 37.2177 53.625 39.1562 53.625H46.1329C45.9012 53.1565 45.5826 52.7152 45.1844 52.3195C42.8085 49.9582 41.5 46.815 41.5 43.4688Z" fill="#140B43"/>
<path d="M48.9219 59.4844C48.9219 61.4229 50.499 63 52.4375 63H55.5625C57.501 63 59.0781 61.4229 59.0781 59.4844V57.5312H48.9219V59.4844Z" fill="#140B43"/>
<path d="M54.7457 45.3208C54.7368 45.3177 54.7286 45.3146 54.7197 45.3115V48.5252C55.3546 48.2445 55.7299 47.6457 55.8249 47.0801C55.8762 46.7751 55.95 45.7465 54.7457 45.3208Z" fill="#140B43"/>
<path d="M52.4613 41.6613C52.3823 42.0803 52.4887 42.4745 52.7322 42.6655C52.8559 42.7624 52.9997 42.8564 53.157 42.9476V40.6797C52.7446 40.892 52.5276 41.309 52.4613 41.6613Z" fill="#140B43"/>
<path d="M54 33.3125C48.3998 33.3125 43.8438 37.8686 43.8438 43.4688C43.8438 46.1862 44.9066 48.739 46.8366 50.657C48.1061 51.9187 48.8363 53.5175 48.9141 55.1875H59.0859C59.1637 53.5175 59.894 51.9187 61.1634 50.657C63.0934 48.739 64.1562 46.1862 64.1562 43.4688C64.1562 37.8686 59.6002 33.3125 54 33.3125ZM57.3657 47.3396C57.1583 48.5735 56.2048 49.8246 54.7196 50.1623V50.8906C54.7196 51.3221 54.3698 51.6719 53.9384 51.6719C53.507 51.6719 53.1571 51.3221 53.1571 50.8906V50.2327C52.4069 50.1805 51.8063 49.9984 50.941 49.4323C50.5799 49.196 50.4788 48.7119 50.7149 48.3508C50.951 47.9897 51.4353 47.8885 51.7964 48.1247C52.3416 48.4813 52.6727 48.6178 53.1571 48.6659V44.6976C52.5627 44.4295 52.124 44.1737 51.7681 43.8946C51.0602 43.3393 50.7374 42.3726 50.926 41.3717C51.1323 40.2773 51.8929 39.4069 52.9112 39.1001C52.9945 39.075 53.0762 39.0535 53.1571 39.0336V38.3906C53.1571 37.9591 53.507 37.6094 53.9384 37.6094C54.3698 37.6094 54.7196 37.9591 54.7196 38.3906V38.943C55.6051 39.072 56.2277 39.4998 56.5233 39.8391C56.8068 40.1645 56.7728 40.6579 56.4475 40.9414C56.1234 41.2239 55.632 41.1912 55.3481 40.8688C55.3334 40.8538 55.1261 40.6491 54.7196 40.5382V43.6495C54.903 43.7183 55.0866 43.7845 55.2663 43.8481C56.8066 44.3925 57.6308 45.763 57.3657 47.3396Z" fill="#140B43"/>
<defs>
<filter id="filter0_dddd_0_77" x="0" y="0" width="108" height="131" filterUnits="userSpaceOnUse" color-interpolation-filters="sRGB">
<feFlood flood-opacity="0" result="BackgroundImageFix"/>
<feColorMatrix in="SourceAlpha" type="matrix" values="0 0 0 0 0 0 0 0 0 0 0 0 0 0 0 0 0 0 127 0" result="hardAlpha"/>
<feOffset dy="2"/>
<feGaussianBlur stdDeviation="2.5"/>
<feColorMatrix type="matrix" values="0 0 0 0 0.913725 0 0 0 0 0.819608 0 0 0 0 0.458824 0 0 0 0.1 0"/>
<feBlend mode="normal" in2="BackgroundImageFix" result="effect1_dropShadow_0_77"/>
<feColorMatrix in="SourceAlpha" type="matrix" values="0 0 0 0 0 0 0 0 0 0 0 0 0 0 0 0 0 0 127 0" result="hardAlpha"/>
<feOffset dy="8"/>
<feGaussianBlur stdDeviation="4"/>
<feColorMatrix type="matrix" values="0 0 0 0 0.913725 0 0 0 0 0.819608 0 0 0 0 0.458824 0 0 0 0.09 0"/>
<feBlend mode="normal" in2="effect1_dropShadow_0_77" result="effect2_dropShadow_0_77"/>
<feColorMatrix in="SourceAlpha" type="matrix" values="0 0 0 0 0 0 0 0 0 0 0 0 0 0 0 0 0 0 127 0" result="hardAlpha"/>
<feOffset dy="19"/>
<feGaussianBlur stdDeviation="5.5"/>
<feColorMatrix type="matrix" values="0 0 0 0 0.913725 0 0 0 0 0.819608 0 0 0 0 0.458824 0 0 0 0.05 0"/>
<feBlend mode="normal" in2="effect2_dropShadow_0_77" result="effect3_dropShadow_0_77"/>
<feColorMatrix in="SourceAlpha" type="matrix" values="0 0 0 0 0 0 0 0 0 0 0 0 0 0 0 0 0 0 127 0" result="hardAlpha"/>
<feOffset dy="34"/>
<feGaussianBlur stdDeviation="7"/>
<feColorMatrix type="matrix" values="0 0 0 0 0.913725 0 0 0 0 0.819608 0 0 0 0 0.458824 0 0 0 0.01 0"/>
<feBlend mode="normal" in2="effect3_dropShadow_0_77" result="effect4_dropShadow_0_77"/>
<feBlend mode="normal" in="SourceGraphic" in2="effect4_dropShadow_0_77" result="shape"/>
</filter>
</defs>
</svg>
