<svg width="80" height="80" viewBox="0 0 80 80" fill="none" xmlns="http://www.w3.org/2000/svg">
<circle cx="40" cy="40" r="40" fill="#F9E58F"/>
<path d="M20 52.8906V54.0625C20 56.001 21.5771 57.5781 23.5156 57.5781H56.4844C58.4229 57.5781 60 56.001 60 54.0625V52.8906H20Z" fill="#140B43"/>
<path d="M58.1754 46.6406H21.8246L20.3598 50.5469H59.6402L58.1754 46.6406Z" fill="#140B43"/>
<path d="M57.6562 25.9375C57.6562 23.999 56.0791 22.4219 54.1406 22.4219H25.8594C23.9209 22.4219 22.3438 23.999 22.3438 25.9375V44.2969H57.6562V25.9375ZM34.436 35.7479C34.178 37.1932 32.7976 38.2422 31.1538 38.2422C29.8375 38.2422 28.5516 37.6903 27.7138 36.7659C27.3516 36.3663 27.382 35.7487 27.7817 35.3866C28.1814 35.0244 28.799 35.0548 29.1611 35.4545C29.6347 35.977 30.3796 36.2891 31.1538 36.2891C31.9059 36.2891 32.4355 35.8395 32.5132 35.4047C32.6164 34.8269 31.8339 34.4718 31.4927 34.3459C30.2837 33.9 29.2102 33.4221 29.1651 33.402C29.118 33.381 29.0727 33.3564 29.0296 33.3283C28.207 32.792 27.7831 31.8514 27.9234 30.8737C28.073 29.8316 28.8349 28.9827 29.9119 28.6584C31.9041 28.0582 33.7254 29.1057 34.103 29.812C34.3572 30.2876 34.1777 30.8793 33.702 31.1336C33.2721 31.3634 32.7475 31.2388 32.4628 30.8616C32.2662 30.6951 31.4635 30.2309 30.4753 30.5285C29.9763 30.6788 29.8766 31.0141 29.8569 31.1512C29.8427 31.2498 29.8356 31.4864 30.0466 31.6562C30.3205 31.7762 31.2116 32.1606 32.1686 32.5137C34.1366 33.2393 34.6302 34.6602 34.436 35.7479ZM40.2313 32.3828C40.7706 32.3828 41.2079 32.82 41.2079 33.3594C41.2079 33.8988 40.7706 34.3359 40.2313 34.3359H38.1588V36.2891H40.4741C41.0134 36.2891 41.4506 36.7263 41.4506 37.2656C41.4506 37.8049 41.0134 38.2422 40.4741 38.2422H37.1822C36.6429 38.2422 36.2056 37.8049 36.2056 37.2656V29.4531C36.2056 28.9138 36.6429 28.4766 37.1822 28.4766H40.4741C41.0134 28.4766 41.4506 28.9138 41.4506 29.4531C41.4506 29.9924 41.0134 30.4297 40.4741 30.4297H38.1588V32.3828H40.2313ZM47.6562 38.2422C44.9638 38.2422 42.7734 36.0517 42.7734 33.3594C42.7734 30.667 44.9638 28.4766 47.6562 28.4766C50.3487 28.4766 52.5391 30.667 52.5391 33.3594C52.5391 36.0517 50.3487 38.2422 47.6562 38.2422Z" fill="#140B43"/>
<path d="M47.6562 36.2891C49.2743 36.2891 50.5859 34.9774 50.5859 33.3594C50.5859 31.7414 49.2743 30.4297 47.6562 30.4297C46.0382 30.4297 44.7266 31.7414 44.7266 33.3594C44.7266 34.9774 46.0382 36.2891 47.6562 36.2891Z" fill="#140B43"/>
</svg>
