<svg width="20" height="20" viewBox="0 0 20 20" fill="none" xmlns="http://www.w3.org/2000/svg">
<g id="Frame">
<g id="Group">
<path id="Vector" d="M13.8488 0H13.9911C14.1053 1.41044 13.5669 2.46432 12.9126 3.22751C12.2706 3.98542 11.3915 4.7205 9.96968 4.60897C9.87483 3.21872 10.4141 2.24301 11.0675 1.48158C11.6734 0.771967 12.7844 0.140517 13.8488 0ZM18.1531 14.6805V14.7201C17.7535 15.9303 17.1835 16.9675 16.4879 17.93C15.853 18.8038 15.0748 19.9798 13.6855 19.9798C12.4849 19.9798 11.6875 19.2078 10.4571 19.1868C9.15555 19.1657 8.4398 19.8323 7.24979 20H6.84405C5.9702 19.8735 5.26498 19.1815 4.75122 18.5579C3.23626 16.7154 2.06558 14.3354 1.84778 11.2897V10.3948C1.93999 8.21499 2.99914 6.44272 4.40695 5.58381C5.14993 5.12712 6.17132 4.73807 7.30863 4.91196C7.79605 4.98748 8.29401 5.15435 8.73049 5.31946C9.14414 5.47842 9.66142 5.76033 10.1515 5.7454C10.4834 5.73574 10.8137 5.56273 11.1483 5.44065C12.1284 5.08673 13.0892 4.68098 14.3556 4.87156C15.8776 5.10166 16.9578 5.77789 17.6252 6.82124C16.3377 7.64063 15.3199 8.87542 15.4938 10.9841C15.6483 12.8995 16.7619 14.0201 18.1531 14.6805Z" fill="#140B43"/>
</g>
</g>
</svg>
