<svg width="13" height="11" viewBox="0 0 13 11" fill="none" xmlns="http://www.w3.org/2000/svg">
<path d="M11.9766 6.37891L7.60156 10.7539C7.4375 10.918 7.21875 11 7 11C6.75391 11 6.53516 10.918 6.37109 10.7539C6.01562 10.4258 6.01562 9.85156 6.37109 9.52344L9.24219 6.625H0.875C0.382812 6.625 0 6.24219 0 5.75C0 5.28516 0.382812 4.875 0.875 4.875H9.24219L6.37109 2.00391C6.01562 1.67578 6.01562 1.10156 6.37109 0.773438C6.69922 0.417969 7.27344 0.417969 7.60156 0.773438L11.9766 5.14844C12.332 5.47656 12.332 6.05078 11.9766 6.37891Z" fill="#2928E8"/>
</svg>
